<?xml version="1.0" encoding="UTF-8" standalone="no"?>
<!-- Created with Inkscape (http://www.inkscape.org/) -->

<svg
   xmlns:dc="http://purl.org/dc/elements/1.1/"
   xmlns:cc="http://creativecommons.org/ns#"
   xmlns:rdf="http://www.w3.org/1999/02/22-rdf-syntax-ns#"
   xmlns:svg="http://www.w3.org/2000/svg"
   xmlns="http://www.w3.org/2000/svg"
   xmlns:sodipodi="http://sodipodi.sourceforge.net/DTD/sodipodi-0.dtd"
   xmlns:inkscape="http://www.inkscape.org/namespaces/inkscape"
   width="210mm"
   height="297mm"
   viewBox="0 0 744.09448819 1052.3622047"
   id="svg2"
   version="1.1"
   inkscape:version="0.91 r13725"
   sodipodi:docname="Connecting_to_database_using_php.svg">
  <defs
     id="defs4">
    <inkscape:perspective
       sodipodi:type="inkscape:persp3d"
       inkscape:vp_x="0 : 526.1811 : 1"
       inkscape:vp_y="0 : 1000 : 0"
       inkscape:vp_z="744.09449 : 526.1811 : 1"
       inkscape:persp3d-origin="372.04724 : 350.7874 : 1"
       id="perspective3336" />
    <clipPath
       clipPathUnits="userSpaceOnUse"
       id="clipPath20">
      <path
         inkscape:connector-curvature="0"
         d="m 366.672,2445.95 c 0,0 127.719,141.37 216.176,199.96 28.183,18.65 237.797,128.95 372.402,-250.67 73.64,-207.85 74.87,-362.68 -92.516,-428.71 -100.234,-39.55 -64.41,-113.59 -64.41,-113.59"
         id="path18" />
    </clipPath>
    <linearGradient
       x1="0"
       y1="0"
       x2="1"
       y2="0"
       gradientUnits="userSpaceOnUse"
       gradientTransform="matrix(870.829,-648.982,-648.982,-870.829,1062.31,2048.82)"
       spreadMethod="pad"
       id="linearGradient26">
      <stop
         style="stop-opacity:1;stop-color:#8c9bd6"
         offset="0"
         id="stop22" />
      <stop
         style="stop-opacity:1;stop-color:#505e9b"
         offset="1"
         id="stop24" />
    </linearGradient>
    <clipPath
       clipPathUnits="userSpaceOnUse"
       id="clipPath38">
      <path
         inkscape:connector-curvature="0"
         d="m 2084.18,2364.09 268.24,0 c 22.51,0 40.74,-14.93 40.74,-33.29 l 0,0 c 0,-18.37 -18.23,-33.27 -40.74,-33.27 l -210.54,0 z"
         id="path36" />
    </clipPath>
    <linearGradient
       x1="0"
       y1="0"
       x2="1"
       y2="0"
       gradientUnits="userSpaceOnUse"
       gradientTransform="matrix(878.069,-654.378,-654.378,-878.069,1631.85,2795.24)"
       spreadMethod="pad"
       id="linearGradient44">
      <stop
         style="stop-opacity:1;stop-color:#808fd0"
         offset="0"
         id="stop40" />
      <stop
         style="stop-opacity:1;stop-color:#505e9b"
         offset="1"
         id="stop42" />
    </linearGradient>
    <clipPath
       clipPathUnits="userSpaceOnUse"
       id="clipPath68">
      <path
         inkscape:connector-curvature="0"
         d="m 1150.12,1702.08 0,-535.82 c 0,-132.12 -131.1,-179.471 -292.784,-179.471 l 0,0 c -161.711,0 -292.746,47.351 -292.746,179.471 l 0,542.14"
         id="path66" />
    </clipPath>
    <linearGradient
       x1="0"
       y1="0"
       x2="1"
       y2="0"
       gradientUnits="userSpaceOnUse"
       gradientTransform="matrix(867.01,-646.136,-646.136,-867.01,668.276,1535.96)"
       spreadMethod="pad"
       id="linearGradient74">
      <stop
         style="stop-opacity:1;stop-color:#8c9bd6"
         offset="0"
         id="stop70" />
      <stop
         style="stop-opacity:1;stop-color:#505e9b"
         offset="1"
         id="stop72" />
    </linearGradient>
    <clipPath
       clipPathUnits="userSpaceOnUse"
       id="clipPath98">
      <path
         inkscape:connector-curvature="0"
         d="m 2045.81,1695.54 0,-535.81 c 0,-132.14 -131.09,-179.468 -292.78,-179.468 l 0,0 c -161.7,0 -292.79,47.328 -292.79,179.468 l 0,542.13"
         id="path96" />
    </clipPath>
    <linearGradient
       x1="0"
       y1="0"
       x2="1"
       y2="0"
       gradientUnits="userSpaceOnUse"
       gradientTransform="matrix(867.001,-646.13,-646.13,-867.001,994.502,1953.79)"
       spreadMethod="pad"
       id="linearGradient104">
      <stop
         style="stop-opacity:1;stop-color:#8c9bd6"
         offset="0"
         id="stop100" />
      <stop
         style="stop-opacity:1;stop-color:#505e9b"
         offset="1"
         id="stop102" />
    </linearGradient>
    <clipPath
       clipPathUnits="userSpaceOnUse"
       id="clipPath128">
      <path
         inkscape:connector-curvature="0"
         d="m 903.801,2433.88 c 114.029,-185.4 101.879,-342.02 -50.055,-424.12 -90.965,-49.18 -40.887,-114.04 -40.887,-114.04"
         id="path126" />
    </clipPath>
    <linearGradient
       x1="0"
       y1="0"
       x2="1"
       y2="0"
       gradientUnits="userSpaceOnUse"
       gradientTransform="matrix(841.599,-627.199,-627.199,-841.599,1039.39,2029.86)"
       spreadMethod="pad"
       id="linearGradient134">
      <stop
         style="stop-opacity:1;stop-color:#808fd0"
         offset="0"
         id="stop130" />
      <stop
         style="stop-opacity:1;stop-color:#505e9b"
         offset="1"
         id="stop132" />
    </linearGradient>
    <clipPath
       clipPathUnits="userSpaceOnUse"
       id="clipPath146">
      <path
         inkscape:connector-curvature="0"
         d="m 1569.91,2565.32 c 0,0 -189.32,2.23 -881.043,-20.69 C -2.81641,2521.72 22.7109,2273.69 21.6367,1917.49 l 0,-856.76 c 0,-72.468 62.793,-101.699 140.2733,-101.699 77.469,0 140.356,29.231 140.356,101.699 0,0 17.863,244.81 33.285,393.73 34.5,541.01 687.579,-88.96 1162.329,-59.56 431.41,26.74 771.15,175.65 771.15,529.54 0,353.97 -222.65,640.88 -699.12,640.88 z"
         id="path144" />
    </clipPath>
    <linearGradient
       x1="0"
       y1="0"
       x2="1"
       y2="0"
       gradientUnits="userSpaceOnUse"
       gradientTransform="matrix(875.231,-652.263,-652.263,-875.231,894.629,1822.24)"
       spreadMethod="pad"
       id="linearGradient152">
      <stop
         style="stop-opacity:1;stop-color:#8c9bd6"
         offset="0"
         id="stop148" />
      <stop
         style="stop-opacity:1;stop-color:#505e9b"
         offset="1"
         id="stop150" />
    </linearGradient>
    <clipPath
       clipPathUnits="userSpaceOnUse"
       id="clipPath164">
      <path
         inkscape:connector-curvature="0"
         d="m 40.5078,1894 c 0.7383,-80.46 -10.5781,-783.24 33.8086,-825.44 -13.9453,31.12 16.5625,711.97 16.1719,754.76 l -0.4102,25.04 c 0,11.92 0,23.67 0,35.37 -17.1093,6.32 -33.7148,14.09 -49.7461,22.98 z"
         id="path162" />
    </clipPath>
    <linearGradient
       x1="0"
       y1="0"
       x2="1"
       y2="0"
       gradientUnits="userSpaceOnUse"
       gradientTransform="matrix(579.497,-844.587,-844.587,-579.497,-304.165,2038.99)"
       spreadMethod="pad"
       id="linearGradient170">
      <stop
         style="stop-opacity:1;stop-color:#fafafd"
         offset="0"
         id="stop166" />
      <stop
         style="stop-opacity:1;stop-color:#8892d2"
         offset="1"
         id="stop168" />
    </linearGradient>
    <clipPath
       clipPathUnits="userSpaceOnUse"
       id="clipPath180">
      <path
         inkscape:connector-curvature="0"
         d="m 1569.65,2541.75 c 0,0 -185.21,2.18 -862.005,-20.24 C 30.8789,2499.09 41.2656,2249.73 41.2656,1914.49 l 0.1406,-12.4 c 15.6641,-8.89 31.8985,-16.66 48.5586,-22.99 0.1563,317.27 13.6482,550.06 666.4062,571.68 676.769,22.42 862.039,20.24 862.039,20.24 258.82,0 437,-87.38 547.94,-223.71 -102.14,176.42 -295.52,294.44 -596.7,294.44 z"
         id="path178" />
    </clipPath>
    <linearGradient
       x1="0"
       y1="0"
       x2="1"
       y2="0"
       gradientUnits="userSpaceOnUse"
       gradientTransform="matrix(675.246,-984.137,-984.137,-675.246,649.966,2737.72)"
       spreadMethod="pad"
       id="linearGradient186">
      <stop
         style="stop-opacity:1;stop-color:#fafafd"
         offset="0"
         id="stop182" />
      <stop
         style="stop-opacity:1;stop-color:#8892d2"
         offset="1"
         id="stop184" />
    </linearGradient>
    <clipPath
       clipPathUnits="userSpaceOnUse"
       id="clipPath196">
      <path
         inkscape:connector-curvature="0"
         d="m 1333.93,1456.26 0,-381.58 c 0,-132.121 -131.13,-179.571 -292.82,-179.571 l 0,0 c -161.696,0 -292.755,47.45 -292.755,179.571 l 0,580.79"
         id="path194" />
    </clipPath>
    <linearGradient
       x1="0"
       y1="0"
       x2="1"
       y2="0"
       gradientUnits="userSpaceOnUse"
       gradientTransform="matrix(866.559,-645.8,-645.8,-866.559,654.526,1514.45)"
       spreadMethod="pad"
       id="linearGradient202">
      <stop
         style="stop-opacity:1;stop-color:#8c9bd6"
         offset="0"
         id="stop198" />
      <stop
         style="stop-opacity:1;stop-color:#505e9b"
         offset="1"
         id="stop200" />
    </linearGradient>
    <clipPath
       clipPathUnits="userSpaceOnUse"
       id="clipPath232">
      <path
         inkscape:connector-curvature="0"
         d="m 2229.92,1718.48 0,-628.88 c 0,-132.112 -131.12,-179.53 -292.81,-179.53 l 0,0 c -161.71,0 -292.75,47.418 -292.75,179.53 l 0,361.33"
         id="path230" />
    </clipPath>
    <linearGradient
       x1="0"
       y1="0"
       x2="1"
       y2="0"
       gradientUnits="userSpaceOnUse"
       gradientTransform="matrix(869.571,-648.045,-648.045,-869.571,1046.59,2028.58)"
       spreadMethod="pad"
       id="linearGradient238">
      <stop
         style="stop-opacity:1;stop-color:#8c9bd6"
         offset="0"
         id="stop234" />
      <stop
         style="stop-opacity:1;stop-color:#505e9b"
         offset="1"
         id="stop236" />
    </linearGradient>
    <clipPath
       clipPathUnits="userSpaceOnUse"
       id="clipPath298">
      <path
         inkscape:connector-curvature="0"
         d="m 571.879,2500.55 c 0,0 171.527,117.93 279.867,158.35 34.531,12.89 283.674,78.71 324.064,-351.49 22.08,-235.55 -17.68,-398.24 -210.83,-427.71 -115.589,-17.66 -97.691,-103.81 -97.691,-103.81"
         id="path296" />
    </clipPath>
    <linearGradient
       x1="0"
       y1="0"
       x2="1"
       y2="0"
       gradientUnits="userSpaceOnUse"
       gradientTransform="matrix(868.236,-647.05,-647.05,-868.236,1098.5,2096.02)"
       spreadMethod="pad"
       id="linearGradient304">
      <stop
         style="stop-opacity:1;stop-color:#8c9bd6"
         offset="0"
         id="stop300" />
      <stop
         style="stop-opacity:1;stop-color:#505e9b"
         offset="1"
         id="stop302" />
    </linearGradient>
    <clipPath
       clipPathUnits="userSpaceOnUse"
       id="clipPath316">
      <path
         inkscape:connector-curvature="0"
         d="m 747.344,2531.75 c 194.211,121.45 302.026,59.35 302.026,59.35 -84.444,77.21 -179.436,51.62 -200.444,43.74 -107.969,-40.42 -316.485,-189.8 -316.485,-189.8 0,0 -28.195,-50.01 27.989,-39.16 0,0 122.211,85.38 186.914,125.87 z"
         id="path314" />
    </clipPath>
    <linearGradient
       x1="0"
       y1="0"
       x2="1"
       y2="0"
       gradientUnits="userSpaceOnUse"
       gradientTransform="matrix(690.106,-1005.8,-1005.8,-690.106,633.604,2727.32)"
       spreadMethod="pad"
       id="linearGradient322">
      <stop
         style="stop-opacity:1;stop-color:#fafafd"
         offset="0"
         id="stop318" />
      <stop
         style="stop-opacity:1;stop-color:#8892d2"
         offset="1"
         id="stop320" />
    </linearGradient>
  </defs>
  <sodipodi:namedview
     id="base"
     pagecolor="#ffffff"
     bordercolor="#666666"
     borderopacity="1.0"
     inkscape:pageopacity="0.0"
     inkscape:pageshadow="2"
     inkscape:zoom="0.7"
     inkscape:cx="324.12315"
     inkscape:cy="447.67102"
     inkscape:document-units="px"
     inkscape:current-layer="layer1"
     showgrid="false"
     showguides="false"
     inkscape:guide-bbox="true"
     inkscape:snap-bbox="true"
     inkscape:bbox-nodes="true"
     inkscape:snap-bbox-edge-midpoints="true"
     inkscape:snap-bbox-midpoints="true"
     inkscape:bbox-paths="true"
     inkscape:window-width="1920"
     inkscape:window-height="1136"
     inkscape:window-x="1920"
     inkscape:window-y="0"
     inkscape:window-maximized="1"
     inkscape:snap-global="false">
    <sodipodi:guide
       position="230.6261,504.22671"
       orientation="0,1"
       id="guide4496" />
    <sodipodi:guide
       position="232.19083,399.85366"
       orientation="0,1"
       id="guide4498" />
    <sodipodi:guide
       position="233.62034,287.88114"
       orientation="0,1"
       id="guide4500" />
    <sodipodi:guide
       position="232.47258,107.89587"
       orientation="0,1"
       id="guide4502" />
    <sodipodi:guide
       position="204.28572,484.32058"
       orientation="0,1"
       id="guide4504" />
    <sodipodi:guide
       position="160.80681,379.94748"
       orientation="0,1"
       id="guide4508" />
    <sodipodi:guide
       position="167.25526,267.975"
       orientation="0,1"
       id="guide4510" />
    <sodipodi:guide
       position="156.85618,87.989768"
       orientation="0,1"
       id="guide4512" />
    <sodipodi:guide
       position="39.920364,980.2291"
       orientation="1,0"
       id="guide5369" />
    <sodipodi:guide
       position="85.570535,578.62067"
       orientation="1,0"
       id="guide5371" />
    <sodipodi:guide
       position="580.92168,911.67971"
       orientation="0,1"
       id="guide4038" />
    <sodipodi:guide
       position="592.80811,851.39626"
       orientation="0,1"
       id="guide4040" />
    <sodipodi:guide
       position="58.675248,84.755517"
       orientation="1,0"
       id="guide5000" />
  </sodipodi:namedview>
  <metadata
     id="metadata7">
    <rdf:RDF>
      <cc:Work
         rdf:about="">
        <dc:format>image/svg+xml</dc:format>
        <dc:type
           rdf:resource="http://purl.org/dc/dcmitype/StillImage" />
        <dc:title />
      </cc:Work>
    </rdf:RDF>
  </metadata>
  <g
     inkscape:label="Layer 1"
     inkscape:groupmode="layer"
     id="layer1">
    <rect
       style="fill:#f9f9f9;fill-opacity:1"
       id="rect5020"
       width="612.15247"
       height="88.893425"
       x="34.304577"
       y="852.17438" />
    <g
       id="g3508"
       transform="matrix(0.27510254,0,0,0.29946336,507.3663,963.39768)">
      <g
         id="g3470"
         style="fill:#00618a;fill-rule:nonzero;stroke:none;stroke-width:0.87088001;stroke-linecap:butt;stroke-linejoin:miter;stroke-dasharray:none"
         transform="translate(0.738281,121.593)">
        <path
           id="path3472"
           d="m 0,62.235 c 0,0 12.8418,0 12.8418,0 0,0 0,-50.711 0,-50.711 0,0 19.8808,44.208 19.8808,44.208 2.3457,5.351 5.5567,7.244 11.8536,7.244 6.2978,0 9.3847,-1.893 11.7314,-7.244 0,0 19.8799,-44.208 19.8799,-44.208 0,0 0,50.711 0,50.711 0,0 12.8428,0 12.8428,0 0,0 0,-50.628 0,-50.628 0,-4.939 -1.9766,-7.327 -6.0508,-8.561 C 73.2246,0 66.6797,2.634 63.7158,9.22 c 0,0 -19.5098,43.63 -19.5098,43.63 0,0 -18.8925,-43.63 -18.8925,-43.63 C 22.4736,2.634 15.8056,0 6.05078,3.046 1.97559,4.28 0,6.668 0,11.607 c 0,0 0,50.628 0,50.628 z"
           inkscape:connector-curvature="0" />
      </g>
      <g
         id="g3474"
         style="fill:#00618a;fill-rule:nonzero;stroke:none;stroke-width:0.87088001;stroke-linecap:butt;stroke-linejoin:miter;stroke-dasharray:none"
         transform="translate(100.444,142.416)">
        <path
           id="path3476"
           d="m 0.002,0.136 c 0,0 12.838,0 12.838,0 0,0 0,27.938 0,27.938 -0.12,1.518 0.487,5.08 7.522,5.191 3.589,0.056 27.7,0 27.925,0 0,0 0,-33.265 0,-33.265 0,0 12.868,0 12.868,0 0.059,0 -0.013,45.364 -0.012,45.557 0.071,11.188 -13.882,13.618 -20.313,13.806 0,0 -40.549,0 -40.549,0 0,0 0,-8.639 0,-8.639 0.071,0 40.519,0.008 40.621,-0.002 8.265,-0.873 7.289,-4.981 7.288,-6.364 0,0 0,-3.368 0,-3.368 0,0 -27.295,0 -27.295,0 C 8.196,40.873 0.109,35.331 0.009,28.955 0,28.364 0.283,0.415 0.002,0.136 Z"
           inkscape:connector-curvature="0" />
      </g>
      <g
         id="g3478"
         style="fill:#e48e00;fill-rule:nonzero;stroke:none;stroke-width:0.87088001;stroke-linecap:butt;stroke-linejoin:miter;stroke-dasharray:none"
         transform="translate(171.496,124.557)">
        <path
           id="path3480"
           d="m 0,59.271 c 0,0 36.92,0 36.92,0 4.322,0 8.521,-0.905 11.855,-2.47 5.556,-2.551 8.273,-6.008 8.273,-10.537 0,0 0,-9.384 0,-9.384 0,-3.705 -3.087,-7.163 -9.138,-9.467 -3.211,-1.236 -7.162,-1.894 -10.99,-1.894 0,0 -15.559,0 -15.559,0 -5.185,0 -7.655,-1.564 -8.272,-5.021 -0.124,-0.412 -0.124,-0.742 -0.124,-1.153 0,0 0,-5.844 0,-5.844 0,-0.33 0,-0.66 0.124,-1.071 0.617,-2.634 1.976,-3.376 6.544,-3.787 0.371,0 0.864,-0.083 1.235,-0.083 0,0 36.674,0 36.674,0 0,0 0,-8.56 0,-8.56 0,0 -36.057,0 -36.057,0 C 16.299,0 13.582,0.329 11.113,1.069 3.457,3.457 0.123,7.244 0.123,13.83 c 0,0 0,7.491 0,7.491 0,5.763 6.545,10.702 17.534,11.854 1.236,0.082 2.47,0.164 3.704,0.164 0,0 13.336,0 13.336,0 0.495,0 0.989,0 1.359,0.083 4.075,0.33 5.803,1.07 7.039,2.552 0.74,0.74 0.987,1.482 0.987,2.305 0,0 0,7.491 0,7.491 0,0.906 -0.617,2.059 -1.851,3.046 -1.112,0.988 -2.964,1.647 -5.434,1.812 -0.494,0 -0.864,0.082 -1.358,0.082 0,0 -35.439,0 -35.439,0 0,0 0,8.561 0,8.561 z"
           inkscape:connector-curvature="0" />
      </g>
      <g
         id="g3482"
         style="fill:#e48e00;fill-rule:nonzero;stroke:none;stroke-width:0.87088001;stroke-linecap:butt;stroke-linejoin:miter;stroke-dasharray:none"
         transform="translate(308.656,124.557)">
        <path
           id="path3484"
           d="m 0,44.371 c 0,8.808 6.544,13.748 19.757,14.736 1.234,0.082 2.47,0.164 3.704,0.164 0,0 33.464,0 33.464,0 0,0 0,-8.561 0,-8.561 0,0 -33.711,0 -33.711,0 -7.532,0 -10.372,-1.894 -10.372,-6.421 0,0 0,-44.289 0,-44.289 C 12.842,0 0,0 0,0 0,0 0,44.371 0,44.371 Z"
           inkscape:connector-curvature="0" />
      </g>
      <g
         id="g3486"
         style="fill:#e48e00;fill-rule:nonzero;stroke:none;stroke-width:0.87088001;stroke-linecap:butt;stroke-linejoin:miter;stroke-dasharray:none"
         transform="translate(236.74,124.666)">
        <path
           id="path3488"
           d="m 0,44.711 c 0,0 0,-30.522 0,-30.522 C 0,6.435 5.445,1.732 16.209,0.247 17.323,0.083 18.561,0 19.674,0 c 0,0 24.376,0 24.376,0 1.237,0 2.352,0.083 3.589,0.247 10.765,1.485 16.209,6.188 16.209,13.942 0,0 0,30.522 0,30.522 0,6.291 -2.312,9.658 -7.641,11.852 0,0 12.65,11.418 12.65,11.418 0,0 -14.911,0 -14.911,0 0,0 -10.234,-9.238 -10.234,-9.238 0,0 -10.303,0.653 -10.303,0.653 0,0 -13.735,0 -13.735,0 -2.351,0 -4.825,-0.331 -7.548,-1.073 C 3.96,56.096 0,51.806 0,44.711 Z m 13.861,-0.742 c 0,0.413 0.123,0.825 0.247,1.32 0.742,3.547 4.083,5.527 9.156,5.527 0,0 11.667,0 11.667,0 0,0 -10.717,-9.675 -10.717,-9.675 0,0 14.911,0 14.911,0 0,0 9.347,8.438 9.347,8.438 1.722,-0.918 2.856,-2.322 3.252,-4.125 0.123,-0.412 0.123,-0.825 0.123,-1.237 0,0 0,-29.285 0,-29.285 0,-0.33 0,-0.743 -0.123,-1.156 C 50.981,10.477 47.64,8.58 42.691,8.58 c 0,0 -19.427,0 -19.427,0 -5.691,0 -9.403,2.475 -9.403,6.352 0,0 0,29.037 0,29.037 z"
           inkscape:connector-curvature="0" />
      </g>
      <g
         id="g3490"
         style="fill:#00618a;fill-rule:nonzero;stroke:none;stroke-width:0.87088001;stroke-linecap:butt;stroke-linejoin:miter;stroke-dasharray:none"
         transform="translate(241.59,-4.64258)">
        <path
           id="path3492"
           d="m 135.289,114.997 c -7.894,-0.214 -13.924,0.52 -19.079,2.694 -1.465,0.618 -3.801,0.634 -4.04,2.47 0.805,0.844 0.93,2.104 1.57,3.142 1.231,1.992 3.309,4.661 5.163,6.061 2.026,1.529 4.114,3.165 6.286,4.489 3.863,2.356 8.176,3.701 11.896,6.061 2.192,1.391 4.37,3.143 6.509,4.713 1.057,0.776 1.768,1.983 3.142,2.469 0,-0.074 0,-0.149 0,-0.224 -0.722,-0.919 -0.908,-2.183 -1.571,-3.143 -0.972,-0.972 -1.945,-1.945 -2.918,-2.918 -2.853,-3.787 -6.475,-7.113 -10.325,-9.876 -3.07,-2.204 -9.942,-5.181 -11.223,-8.754 -0.075,-0.075 -0.149,-0.15 -0.225,-0.225 2.177,-0.245 4.726,-1.033 6.735,-1.571 3.375,-0.905 6.391,-0.671 9.876,-1.571 1.571,-0.449 3.142,-0.899 4.714,-1.347 0,-0.3 0,-0.598 0,-0.898 -1.762,-1.808 -3.018,-4.2 -4.939,-5.836 -5.026,-4.28 -10.512,-8.556 -16.161,-12.1216 -3.133,-1.9776 -7.005,-3.2627 -10.325,-4.9385 -1.117,-0.5635 -3.079,-0.8565 -3.817,-1.7959 -1.744,-2.2237 -2.694,-5.042 -4.039,-7.6319 C 99.7,78.8194 96.933,72.8936 94.437,67.1856 92.734,63.293 91.622,59.4541 89.499,55.9619 79.307,39.2051 68.336,29.0908 51.341,19.1494 47.725,17.0352 43.371,16.2002 38.77,15.1094 36.302,14.96 33.832,14.8096 31.363,14.6602 29.856,14.0303 28.288,12.1865 26.874,11.293 21.244,7.73633 6.803,0 2.633,10.1709 0,16.5908 6.568,22.8555 8.917,26.1084 c 1.649,2.2822 3.76,4.8408 4.938,7.4072 0.775,1.6866 0.909,3.378 1.572,5.1631 1.632,4.3965 3.051,9.1797 5.162,13.2432 1.067,2.0557 2.243,4.2217 3.592,6.0605 0.827,1.128 2.244,1.625 2.468,3.3672 -1.386,1.9395 -1.465,4.9502 -2.244,7.4073 -3.508,11.0615 -2.185,24.8105 2.918,32.9971 1.566,2.513 5.254,7.903 10.325,5.836 4.436,-1.807 3.445,-7.406 4.714,-12.3458 0.287,-1.1202 0.111,-1.9434 0.673,-2.6934 0,0.0742 0,0.1494 0,0.2246 1.347,2.6934 2.694,5.3867 4.041,8.0796 2.99,4.816 8.297,9.849 12.794,13.245 2.332,1.761 4.168,4.806 7.183,5.836 0,-0.075 0,-0.149 0,-0.225 -0.076,0 -0.15,0 -0.225,0 -0.584,-0.911 -1.498,-1.288 -2.244,-2.02 -1.757,-1.722 -3.71,-3.863 -5.163,-5.836 -4.09,-5.553 -7.705,-11.631 -10.998,-17.9575 -1.573,-3.0205 -2.94,-6.3535 -4.266,-9.4278 -0.511,-1.1855 -0.505,-2.9775 -1.57,-3.5917 -1.452,2.2529 -3.591,4.0742 -4.714,6.7343 -1.796,4.252 -2.028,9.4375 -2.693,14.8147 -0.394,0.141 -0.219,0.044 -0.45,0.224 -3.126,-0.754 -4.225,-3.9723 -5.386,-6.733 -2.939,-6.9824 -3.485,-18.2256 -0.899,-26.2627 0.669,-2.0791 3.693,-8.6289 2.469,-10.5498 -0.584,-1.917 -2.512,-3.0254 -3.591,-4.4902 -1.335,-1.8106 -2.668,-4.1944 -3.592,-6.2852 -2.405,-5.4443 -3.528,-11.5557 -6.06,-17.0586 -1.21,-2.6309 -3.257,-5.293 -4.938,-7.6318 C 10.872,21.0489 8.788,19.1406 7.346,16.0069 6.833,14.8936 6.136,13.1113 6.897,11.9668 7.139,11.1943 7.48,10.8721 8.244,10.6201 c 1.302,-1.00389 4.928,0.334 6.284,0.8975 3.6,1.4951 6.604,2.9189 9.653,4.9385 1.464,0.9707 2.944,2.8476 4.713,3.3672 0.673,0 1.347,0 2.02,0 3.16,0.7265 6.7,0.2256 9.652,1.122 5.218,1.586 9.894,4.0528 14.141,6.7344 12.938,8.169 23.516,19.7979 30.752,33.6699 1.164,2.2334 1.668,4.3653 2.693,6.7344 2.069,4.7774 4.675,9.6934 6.733,14.3652 2.054,4.6612 4.056,9.3653 6.959,13.2442 1.527,2.039 7.422,3.1328 10.101,4.2646 1.878,0.794 4.955,1.621 6.734,2.693 3.398,2.05 6.69,4.49 9.877,6.735 1.593,1.122 6.489,3.583 6.733,5.611 z"
           inkscape:connector-curvature="0" />
      </g>
      <g
         id="g3494"
         style="fill:#00618a;fill-rule:evenodd;stroke:none;stroke-width:0.87088001;stroke-linecap:butt;stroke-linejoin:miter;stroke-dasharray:none"
         transform="translate(272.504,24.8027)">
        <path
           id="path3496"
           d="M 4.041,0.0303 C 2.395,0 1.231,0.21 0,0.4786 c 0,0.0751 0,0.1503 0,0.2246 0.075,0 0.15,0 0.225,0 C 1.01,2.3164 2.396,3.3545 3.367,4.7442 4.115,6.3155 4.863,7.8868 5.612,9.4571 5.686,9.3828 5.762,9.3077 5.836,9.2334 7.226,8.2539 7.863,6.6866 7.856,4.295 7.299,3.709 7.217,2.9737 6.734,2.2744 6.092,1.3428 4.85,0.8135 4.041,0.0303 Z"
           inkscape:connector-curvature="0" />
      </g>
      <g
         id="g3498"
         style="fill:#e48e00;fill-rule:evenodd;stroke:none;stroke-width:1;stroke-linecap:butt;stroke-linejoin:miter;stroke-dasharray:none"
         transform="translate(371.609,165.56)">
        <path
           id="path3500"
           d="m 0,9.463 c 0,5.654 4.467,9.464 9.464,9.464 4.997,0 9.464,-3.81 9.464,-9.464 C 18.928,3.81 14.461,0 9.464,0 4.467,0 0,3.81 0,9.463 Z m 16.808,0 c 0,4.29 -3.28,7.496 -7.344,7.496 -4.113,0 -7.344,-3.206 -7.344,-7.496 0,-4.29 3.231,-7.496 7.344,-7.496 4.064,0 7.344,3.206 7.344,7.496 z m -4.794,5.401 c 0,0 2.119,0 2.119,0 0,0 -3.103,-4.744 -3.103,-4.744 1.665,-0.177 2.926,-0.985 2.926,-2.953 0,-2.196 -1.387,-3.104 -4.062,-3.104 0,0 -4.215,0 -4.215,0 0,0 0,10.801 0,10.801 0,0 1.817,0 1.817,0 0,0 0,-4.669 0,-4.669 0,0 1.691,0 1.691,0 0,0 2.827,4.669 2.827,4.669 z M 7.496,8.681 c 0,0 0,-3.104 0,-3.104 0,0 2.094,0 2.094,0 1.086,0 2.398,0.202 2.398,1.464 0,1.513 -1.186,1.64 -2.549,1.64 0,0 -1.943,0 -1.943,0 z"
           inkscape:connector-curvature="0" />
      </g>
    </g>
    <g
       id="g54"
       style="fill:#f4f6f8;stroke:#0f2d59;stroke-linecap:round;stroke-linejoin:round"
       transform="matrix(0.96225485,0,0,0.96225485,34.146883,44.234589)">
      <path
         id="path56"
         inkscape:connector-curvature="0"
         d="m 6.5,29.5 0,10 a 17.5,5 0 0 0 17.5,5 17.5,5 0 0 0 17.5,-5 l 0,-10" />
      <path
         id="path58"
         inkscape:connector-curvature="0"
         d="m 6.5,19.5 0,10 a 17.5,5 0 0 0 17.5,5 17.5,5 0 0 0 17.5,-5 l 0,-10" />
      <path
         id="path60"
         inkscape:connector-curvature="0"
         d="m 6.5,9.5 0,10 a 17.5,5 0 0 0 17.5,5 17.5,5 0 0 0 17.5,-5 l 0,-10" />
      <path
         id="path62"
         inkscape:connector-curvature="0"
         d="M 24,4.5 A 17.5,5 0 0 0 6.5,9.5 17.5,5 0 0 0 24,14.5 17.5,5 0 0 0 41.5,9.5 17.5,5 0 0 0 24,4.5 Z" />
    </g>
    <text
       xml:space="preserve"
       style="font-style:normal;font-weight:normal;font-size:40px;line-height:125%;font-family:sans-serif;letter-spacing:0px;word-spacing:0px;fill:#0f2d59;fill-opacity:1;stroke:none;stroke-width:1px;stroke-linecap:butt;stroke-linejoin:miter;stroke-opacity:1"
       x="114.28571"
       y="82.362206"
       id="text4809"
       sodipodi:linespacing="125%"><tspan
         sodipodi:role="line"
         id="tspan4811"
         x="114.28571"
         y="82.362206">MySQL Database Operations</tspan><tspan
         sodipodi:role="line"
         x="114.28571"
         y="132.36221"
         id="tspan3513">Using PHP's mysqli class</tspan></text>
    <g
       transform="matrix(0.25022276,0,0,0.24818713,630.97609,937.95571)"
       id="g4577">
      <g
         id="g14"
         transform="matrix(0.13333333,0,0,-0.13333333,0,462.54667)">
        <g
           clip-path="url(#clipPath20)"
           id="g16">
          <path
             id="path28"
             style="fill:url(#linearGradient26);fill-opacity:1;fill-rule:nonzero;stroke:none"
             d="m 366.672,2445.95 c 0,0 127.719,141.37 216.176,199.96 28.183,18.65 237.797,128.95 372.402,-250.67 73.64,-207.85 74.87,-362.68 -92.516,-428.71 -100.234,-39.55 -64.41,-113.59 -64.41,-113.59"
             inkscape:connector-curvature="0" />
        </g>
      </g>
      <path
         id="path30"
         style="fill:#363254;fill-opacity:1;fill-rule:nonzero;stroke:none"
         d="m 76.081731,107.46268 c -11.963999,7.924 -28.666666,26.34933 -29.371332,27.128 -1.044267,1.15866 -0.921867,2.92 0.2808,3.928 1.199466,1.00666 3.0224,0.89066 4.068133,-0.26934 0.169867,-0.188 16.931866,-18.67866 28.287999,-26.19733 0.340134,-0.22933 8.624533,-5.58933 18.714133,-2.364 10.610396,3.39334 19.802136,15.288 26.573996,34.39333 10.78054,30.42 7.58334,46.48 -10.69386,53.684 -5.2728,2.08534 -8.74427,5.09867 -10.31454,8.97467 -2.0724,5.112 0.1104,9.72933 0.20467,9.92667 0.66667,1.38533 2.3604,1.97333 3.79893,1.33866 1.44227,-0.628 2.0824,-2.272 1.4396,-3.668 -0.0109,-0.0267 -1.24373,-2.76533 -0.0421,-5.63466 0.988,-2.368 3.37493,-4.31867 7.0964,-5.78267 27.5728,-10.88133 21.94747,-38.12267 13.9676,-60.64267 -7.4848,-21.11066 -17.64893,-33.84933 -30.212932,-37.87066 -12.559467,-4.01733 -22.687067,2.324 -23.797467,3.056"
         inkscape:connector-curvature="0" />
      <g
         id="g32"
         transform="matrix(0.13333333,0,0,-0.13333333,0,462.54667)">
        <g
           clip-path="url(#clipPath38)"
           id="g34">
          <path
             id="path46"
             style="fill:url(#linearGradient44);fill-opacity:1;fill-rule:nonzero;stroke:none"
             d="m 2084.18,2364.09 268.24,0 c 22.51,0 40.74,-14.93 40.74,-33.29 l 0,0 c 0,-18.37 -18.23,-33.27 -40.74,-33.27 l -210.54,0 -57.7,66.56"
             inkscape:connector-curvature="0" />
        </g>
      </g>
      <path
         id="path48"
         style="fill:#363254;fill-opacity:1;fill-rule:nonzero;stroke:none"
         d="m 313.65599,150.11601 c 1.50134,0 2.54534,0.87467 2.54534,1.65733 0,0.78134 -1.044,1.656 -2.54534,1.656 0,0 -24.27733,0 -26.724,0 -0.57466,-0.65866 -1.43466,-1.66 -2.86933,-3.31333 8.452,0 29.59333,0 29.59333,0 z m -41.93466,-5.56267 12.51466,14.44 29.42,0 c 4.588,0 8.316,-3.23866 8.316,-7.22 0,-3.98266 -3.728,-7.22 -8.316,-7.22 l -41.93466,0"
         inkscape:connector-curvature="0" />
      <path
         id="path50"
         style="fill:#8b9dd7;fill-opacity:1;fill-rule:nonzero;stroke:none"
         d="m 324.72399,137.01734 c 4.91734,-2.34266 10.664,-1.76933 12.84933,1.27867 2.17467,3.056 -0.0453,7.42 -4.96133,9.772 -4.908,2.34 -17.77466,5.17067 -19.956,2.11067 -2.184,-3.048 7.15867,-10.82 12.068,-13.16134"
         inkscape:connector-curvature="0" />
      <path
         id="path52"
         style="fill:#363254;fill-opacity:1;fill-rule:nonzero;stroke:none"
         d="m 325.99866,139.51068 0,0 c 3.81467,-1.816 8.00266,-1.304 9.19733,0.36666 0.332,0.468 0.40933,1.00534 0.236,1.648 -0.308,1.16 -1.54933,2.832 -4.10266,4.052 -4.74134,2.25867 -13.16134,3.584 -15.76267,2.944 0.96,-2.156 6.22667,-7.00266 10.432,-9.01066 z m -2.552,-4.98534 0,0 c -4.112,1.956 -12.47467,8.192 -13.79733,13.12134 l 0.63466,4.11066 c 3.95067,5.54934 19.88934,0.57734 23.60533,-1.19733 3.70134,-1.76667 6.29867,-4.55067 7.128,-7.63867 0.59334,-2.20133 0.21334,-4.40266 -1.07066,-6.20133 -3.012,-4.208 -10.25467,-5.17067 -16.5,-2.19467"
         inkscape:connector-curvature="0" />
      <path
         id="path54"
         style="fill:#8b9dd7;fill-opacity:1;fill-rule:nonzero;stroke:none"
         d="m 333.45999,155.02534 c 5.272,1.76 8.208,5.836 6.58133,9.108 -1.64133,3.276 -7.23466,4.492 -12.50266,2.72667 -5.26,-1.756 -15.84,-8.37733 -14.20667,-11.64533 1.64,-3.28267 14.868,-1.94934 20.128,-0.18934"
         inkscape:connector-curvature="0" />
      <path
         id="path56-6"
         style="fill:#363254;fill-opacity:1;fill-rule:nonzero;stroke:none"
         d="m 334.40799,152.40001 -0.005,0 z m -1.89333,5.252 0.003,0 c 2.83199,0.95067 4.38266,2.53067 4.88533,3.696 0.38266,0.89067 0.124,1.41333 0.036,1.584 -0.86667,1.736 -4.88667,2.66133 -8.95467,1.3 -4.64933,-1.55067 -10.9,-5.92 -12.07733,-7.93067 2.18133,-0.73066 11.02133,-0.352 16.108,1.35067 z m -21.78,-3.644 0.003,4.036 c 2.03066,4.71733 11.40133,9.95867 15.85866,11.448 6.704,2.24667 13.75467,0.424 16.04133,-4.14267 0.48667,-0.98533 0.72934,-2.04266 0.72934,-3.11466 0,-1.01067 -0.21334,-2.032 -0.64267,-3.032 -1.292,-2.99334 -4.324,-5.46934 -8.32133,-6.80267 -3.988,-1.33733 -20.65467,-4.428 -23.668,1.608"
         inkscape:connector-curvature="0" />
      <path
         id="path58-5"
         style="fill:#8b9dd7;fill-opacity:1;fill-rule:nonzero;stroke:none"
         d="m 334.23066,144.94134 c 7.82266,-0.0507 14.19466,2.768 14.224,6.30267 0.0387,3.53333 -6.26667,6.43733 -14.09334,6.488 -7.81066,0.0533 -25.51199,-2.684 -25.54799,-6.21467 -0.036,-3.53866 17.60533,-6.51733 25.41733,-6.576"
         inkscape:connector-curvature="0" />
      <path
         id="path60-7"
         style="fill:#363254;fill-opacity:1;fill-rule:nonzero;stroke:none"
         d="m 345.57066,151.27068 c 0,0.13466 -0.12534,0.39733 -0.476,0.74133 -1.41334,1.39067 -5.38667,2.90267 -10.75067,2.93733 -6.708,0.0453 -17.31866,-1.77466 -21.40133,-3.464 4.05333,-1.752 14.612,-3.716 21.31066,-3.76133 l -0.003,0 c 7.408,-0.0493 11.31333,2.612 11.32,3.54667 z m -11.35734,-9.11334 -0.004,0 c -5.68266,0.0413 -22.55866,2.04267 -26.88799,6.28534 l -1.39067,3.10266 c 0.08,8.17867 28.168,8.97067 28.452,8.97067 6.29466,-0.044 11.97733,-1.80533 14.828,-4.60133 1.41333,-1.38534 2.148,-3.00667 2.12933,-4.69867 -0.044,-5.308 -7.248,-9.12 -17.12667,-9.05867"
         inkscape:connector-curvature="0" />
      <g
         id="g62"
         transform="matrix(0.13333333,0,0,-0.13333333,0,462.54667)">
        <g
           clip-path="url(#clipPath68)"
           id="g64">
          <path
             id="path76"
             style="fill:url(#linearGradient74);fill-opacity:1;fill-rule:nonzero;stroke:none"
             d="m 1150.12,1702.08 0,-535.82 c 0,-132.12 -131.1,-179.471 -292.784,-179.471 l 0,0 c -161.711,0 -292.746,47.351 -292.746,179.471 l 0,542.14"
             inkscape:connector-curvature="0" />
        </g>
      </g>
      <path
         id="path78"
         style="fill:#363254;fill-opacity:1;fill-rule:nonzero;stroke:none"
         d="m 72.394798,234.76001 0,72.28533 c 0,17.228 14.882266,26.71227 41.916662,26.71227 27.03387,0 41.92187,-9.48427 41.92187,-26.71227 l 0,-71.44266 c 0,-1.53734 -1.292,-2.784 -2.884,-2.784 -1.59333,0 -2.884,1.24666 -2.884,2.784 l 0,71.44266 c 0,17.48 -19.65747,21.14667 -36.15387,21.14667 -16.490129,0 -36.147862,-3.66667 -36.147862,-21.14667 l 0,-72.28533 c 0,-1.53467 -1.2928,-2.78133 -2.884933,-2.78133 -1.591734,0 -2.883867,1.24666 -2.883867,2.78133"
         inkscape:connector-curvature="0" />
      <path
         id="path80"
         style="fill:#8b9dd7;fill-opacity:1;fill-rule:nonzero;stroke:none"
         d="m 92.386398,306.96001 c 0,7.12666 -4.1312,12.92 -9.2296,12.92 -5.098933,0 -9.231333,-5.79334 -9.231333,-12.92 0,-7.14 4.1324,-23.26 9.231333,-23.26 5.0984,0 9.2296,16.12 9.2296,23.26"
         inkscape:connector-curvature="0" />
      <path
         id="path82"
         style="fill:#363254;fill-opacity:1;fill-rule:nonzero;stroke:none"
         d="m 74.887998,306.96001 c 0,-7.764 4.378133,-22.33334 8.2688,-22.33334 3.889066,0 8.268666,14.56934 8.268666,22.33334 0,6.616 -3.7072,11.99466 -8.268666,11.99466 -4.5584,0 -8.2688,-5.37866 -8.2688,-11.99466 z m -1.924933,0 c 0,7.636 4.571333,13.85066 10.193733,13.85066 5.620266,0 10.1896,-6.21466 10.1896,-13.85066 0,-6.97467 -4.059467,-24.19067 -10.1896,-24.19067 -6.128667,0 -10.193733,17.216 -10.193733,24.19067"
         inkscape:connector-curvature="0" />
      <path
         id="path84"
         style="fill:#a6bde6;fill-opacity:1;fill-rule:nonzero;stroke:none"
         d="m 76.411998,308.24801 c 0,-6.86534 4.995867,-19.22534 8.642667,-19.22534 0.349466,0 0.691733,0.17467 1.021333,0.44 -0.911467,-2.176 -1.955733,-3.616 -3.062,-3.616 -3.649467,0 -6.602,15.53867 -6.602,22.40134"
         inkscape:connector-curvature="0" />
      <path
         id="path86"
         style="fill:#8b9dd7;fill-opacity:1;fill-rule:nonzero;stroke:none"
         d="m 96.739598,313.82401 c 0,5.50666 -3.2844,9.972 -7.339067,9.972 -4.0584,0 -7.347466,-4.46534 -7.347466,-9.972 0,-5.52267 3.289066,-17.96 7.347466,-17.96 4.054667,0 7.339067,12.43733 7.339067,17.96"
         inkscape:connector-curvature="0" />
      <path
         id="path88"
         style="fill:#363254;fill-opacity:1;fill-rule:nonzero;stroke:none"
         d="m 83.013998,313.82401 c 0,-5.772 3.4496,-17.03067 6.386533,-17.03067 2.937467,0 6.376533,11.25867 6.376533,17.03067 0,4.98533 -2.862,9.044 -6.376533,9.044 -3.523466,0 -6.386533,-4.05867 -6.386533,-9.044 z m -1.922267,0 c 0,6.008 3.7276,10.9 8.3088,10.9 4.5744,0 8.300533,-4.892 8.300533,-10.9 0,-4.70134 -2.945333,-18.888 -8.300533,-18.888 -5.3636,0 -8.3088,14.18666 -8.3088,18.888"
         inkscape:connector-curvature="0" />
      <path
         id="path90"
         style="fill:#a6bde6;fill-opacity:1;fill-rule:nonzero;stroke:none"
         d="m 85.140665,310.54401 c -0.369334,-3.924 3.072933,-10.43734 5.754666,-10.91334 0.251067,-0.0333 0.509333,0.0267 0.766133,0.13467 -0.786,-1.128 -1.675466,-2.02667 -2.437466,-1.67467 -2.654667,1.268 -4.452667,8.54267 -4.083333,12.45334"
         inkscape:connector-curvature="0" />
      <g
         id="g92"
         transform="matrix(0.13333333,0,0,-0.13333333,0,462.54667)">
        <g
           clip-path="url(#clipPath98)"
           id="g94">
          <path
             id="path106"
             style="fill:url(#linearGradient104);fill-opacity:1;fill-rule:nonzero;stroke:none"
             d="m 2045.81,1695.54 0,-535.81 c 0,-132.14 -131.09,-179.468 -292.78,-179.468 l 0,0 c -161.7,0 -292.79,47.328 -292.79,179.468 l 0,542.13"
             inkscape:connector-curvature="0" />
        </g>
      </g>
      <path
         id="path108"
         style="fill:#363254;fill-opacity:1;fill-rule:nonzero;stroke:none"
         d="m 191.81333,235.63201 0,72.284 c 0,17.224 14.88933,26.71186 41.924,26.71186 12.168,0 21.92533,-1.92133 29.004,-5.70786 8.44933,-4.52267 12.91733,-11.784 12.91733,-21.004 l 0,-71.44133 c 0,-1.536 -1.292,-2.78134 -2.884,-2.78134 -1.592,0 -2.88133,1.24534 -2.88133,2.78134 l 0,71.44133 c 0,7.27866 -3.25734,12.556 -9.95334,16.14133 -6.12533,3.27333 -15.184,5.00533 -26.20266,5.00533 -16.49334,0 -36.152,-3.672 -36.152,-21.14666 l 0,-72.284 c 0,-1.53867 -1.29467,-2.784 -2.88667,-2.784 -1.592,0 -2.88533,1.24533 -2.88533,2.784"
         inkscape:connector-curvature="0" />
      <path
         id="path110"
         style="fill:#7483ca;fill-opacity:1;fill-rule:nonzero;stroke:none"
         d="m 211.81066,307.82934 c 0,7.12667 -4.12933,12.92933 -9.22667,12.92933 -5.10666,0 -9.23466,-5.80266 -9.23466,-12.92933 0,-7.136 4.128,-23.25733 9.23466,-23.25733 5.09734,0 9.22667,16.12133 9.22667,23.25733"
         inkscape:connector-curvature="0" />
      <path
         id="path112"
         style="fill:#363254;fill-opacity:1;fill-rule:nonzero;stroke:none"
         d="m 194.308,307.82934 c 0,-3.644 1.09466,-9.408 2.65866,-14.01333 1.74,-5.12934 3.89333,-8.31734 5.61733,-8.31734 3.88667,0 8.26667,14.568 8.26667,22.33067 0,6.61867 -3.708,12 -8.26667,12 -4.56399,0 -8.27599,-5.38133 -8.27599,-12 z m 0.83066,-14.59067 c -1.62133,4.76934 -2.75333,10.772 -2.75333,14.59067 0,7.63867 4.57467,13.856 10.19866,13.856 5.61867,0 10.188,-6.21733 10.188,-13.856 0,-6.97467 -4.06,-24.184 -10.188,-24.184 -3.46399,0 -5.95999,5.21333 -7.44533,9.59333"
         inkscape:connector-curvature="0" />
      <path
         id="path114"
         style="fill:#839ad6;fill-opacity:1;fill-rule:nonzero;stroke:none"
         d="m 195.84133,309.12667 c 0,-6.868 4.992,-19.236 8.63866,-19.236 0.35067,0 0.692,0.18 1.02267,0.44134 -0.91467,-2.172 -1.956,-3.61467 -3.06133,-3.61467 -3.652,0 -6.6,15.54133 -6.6,22.40933"
         inkscape:connector-curvature="0" />
      <path
         id="path116"
         style="fill:#7483ca;fill-opacity:1;fill-rule:nonzero;stroke:none"
         d="m 216.16666,314.69201 c 0,5.51466 -3.28267,9.96933 -7.34133,9.96933 -4.05467,0 -7.34267,-4.45467 -7.34267,-9.96933 0,-5.52134 3.288,-17.95734 7.34267,-17.95734 4.05866,0 7.34133,12.436 7.34133,17.95734"
         inkscape:connector-curvature="0" />
      <path
         id="path118"
         style="fill:#363254;fill-opacity:1;fill-rule:nonzero;stroke:none"
         d="m 202.44533,314.69201 c 0,-5.772 3.44266,-17.028 6.38,-17.028 2.93333,0 6.37866,11.256 6.37866,17.028 0,4.98666 -2.86266,9.04666 -6.37866,9.04666 -3.52,0 -6.38,-4.06 -6.38,-9.04666 z m -1.92267,0 c 0,6.01466 3.724,10.9 8.30267,10.9 4.57866,0 8.30266,-4.88534 8.30266,-10.9 0,-4.7 -2.94666,-18.884 -8.30266,-18.884 -5.36,0 -8.30267,14.184 -8.30267,18.884"
         inkscape:connector-curvature="0" />
      <path
         id="path120"
         style="fill:#839ad6;fill-opacity:1;fill-rule:nonzero;stroke:none"
         d="m 204.56933,311.41467 c -0.37467,-3.92 3.06933,-10.432 5.752,-10.91066 0.25333,-0.0347 0.512,0.0227 0.76533,0.132 -0.78533,-1.128 -1.67467,-2.028 -2.43733,-1.67467 -2.656,1.268 -4.45467,8.54133 -4.08,12.45333"
         inkscape:connector-curvature="0" />
      <g
         id="g122"
         transform="matrix(0.13333333,0,0,-0.13333333,0,462.54667)">
        <g
           clip-path="url(#clipPath128)"
           id="g124">
          <path
             id="path136"
             style="fill:url(#linearGradient134);fill-opacity:1;fill-rule:nonzero;stroke:none"
             d="m 903.801,2433.88 c 114.029,-185.4 101.879,-342.02 -50.055,-424.12 -90.965,-49.18 -40.887,-114.04 -40.887,-114.04"
             inkscape:connector-curvature="0" />
        </g>
      </g>
      <path
         id="path138"
         style="fill:#080604;fill-opacity:1;fill-rule:nonzero;stroke:none"
         d="m 119.0364,135.63468 c -1.3724,0.78533 -1.82707,2.49333 -1.01094,3.81466 8.4636,13.75334 11.49227,26.20934 8.7636,36.01334 -1.94013,6.96933 -6.77866,12.584 -14.3636,16.68933 -4.7948,2.58933 -7.65466,5.856 -8.5052,9.704 -1.1572,5.22933 2.01414,9.41467 2.15,9.58933 0.94587,1.22534 2.7308,1.47334 4.0104,0.57334 1.27667,-0.90134 1.55574,-2.63867 0.63027,-3.87867 -0.014,-0.024 -1.77187,-2.43067 -1.138,-5.17467 0.50773,-2.19466 2.41613,-4.19866 5.6692,-5.95866 8.99907,-4.86667 14.76053,-11.62534 17.11987,-20.10267 3.13933,-11.28667 -0.098,-25.22133 -9.3756,-40.296 -0.81147,-1.32267 -2.5848,-1.756 -3.95,-0.97333"
         inkscape:connector-curvature="0" />
      <g
         id="g140"
         transform="matrix(0.13333333,0,0,-0.13333333,0,462.54667)">
        <g
           clip-path="url(#clipPath146)"
           id="g142">
          <path
             id="path154"
             style="fill:url(#linearGradient152);fill-opacity:1;fill-rule:nonzero;stroke:none"
             d="m 1569.91,2565.32 c 0,0 -189.32,2.23 -881.043,-20.69 C -2.81641,2521.72 22.7109,2273.69 21.6367,1917.49 l 0,-856.76 c 0,-72.468 62.793,-101.699 140.2733,-101.699 77.469,0 140.356,29.231 140.356,101.699 0,0 17.863,244.81 33.285,393.73 34.5,541.01 687.579,-88.96 1162.329,-59.56 431.41,26.74 771.15,175.65 771.15,529.54 0,353.97 -222.65,640.88 -699.12,640.88"
             inkscape:connector-curvature="0" />
        </g>
      </g>
      <path
         id="path156"
         style="fill:#363254;fill-opacity:1;fill-rule:nonzero;stroke:none"
         d="m 5.7687465,321.11601 0,-114.23467 c 0,0.0107 0.00729,-5.03333 0.00729,-5.03333 0.015627,-43.93067 0.02812,-72.95333 86.1698245,-75.80666 91.034139,-3.01334 117.086129,-2.76 117.340799,-2.75867 l 0.0347,0 c 29.004,0 52.63866,8.36 68.348,24.17333 14.38266,14.472 21.984,34.7 21.984,58.49867 0,50.93066 -54.44667,64.99733 -100.12,67.82933 -24.03867,1.48533 -52.39333,-10.4 -77.4104,-20.88933 -28.042669,-11.75467 -52.260401,-21.90534 -67.170801,-13.09334 -7.8756,4.65334 -12.156266,14.024 -13.088533,28.64667 -2.026667,19.56 -4.416267,52.14133 -4.438533,52.47333 -0.0068,9.57067 -9.925067,10.9732 -15.837067,10.9732 -5.906266,0 -15.8192529,-1.40253 -15.8192529,-10.77853 z m 85.9828515,-200.632 c -91.7151396,3.036 -91.73076467,35.88933 -91.74430633,81.36 L 0,206.87334 0,321.11601 c 0,10.23226 8.0713598,16.34786 21.587999,16.34786 13.528667,0 21.598933,-6.1156 21.598933,-16.34786 0.01667,-0.13467 2.3948,-32.63734 4.424533,-52.22267 0.8172,-12.78266 4.202534,-20.70933 10.353067,-24.348 12.355733,-7.29733 36.394799,2.78134 61.858928,13.45467 25.61654,10.73866 54.64854,22.912 80.0792,21.336 68.04533,-4.22 105.51867,-30.28 105.51867,-73.38133 0,-25.25867 -8.15734,-46.81734 -23.58667,-62.35067 -16.82267,-16.932 -41.89867,-25.884 -72.51333,-25.884 l 0.0347,0 c -0.252,-0.003 -26.36799,-0.26533 -117.604392,2.764"
         inkscape:connector-curvature="0" />
      <g
         id="g158"
         transform="matrix(0.13333333,0,0,-0.13333333,0,462.54667)">
        <g
           clip-path="url(#clipPath164)"
           id="g160">
          <path
             id="path172"
             style="fill:url(#linearGradient170);fill-opacity:1;fill-rule:nonzero;stroke:none"
             d="m 40.5078,1894 c 0.7383,-80.46 -10.5781,-783.24 33.8086,-825.44 -13.9453,31.12 16.5625,711.97 16.1719,754.76 l -0.4102,25.04 c 0,11.92 0,23.67 0,35.37 -17.1093,6.32 -33.7148,14.09 -49.7461,22.98 L 40.5078,1894"
             inkscape:connector-curvature="0" />
        </g>
      </g>
      <g
         id="g174"
         transform="matrix(0.13333333,0,0,-0.13333333,0,462.54667)">
        <g
           clip-path="url(#clipPath180)"
           id="g176">
          <path
             id="path188"
             style="fill:url(#linearGradient186);fill-opacity:1;fill-rule:nonzero;stroke:none"
             d="m 1569.65,2541.75 c 0,0 -185.21,2.18 -862.005,-20.24 C 30.8789,2499.09 41.2656,2249.73 41.2656,1914.49 l 0.1406,-12.4 c 15.6641,-8.89 31.8985,-16.66 48.5586,-22.99 0.1563,317.27 13.6482,550.06 666.4062,571.68 676.769,22.42 862.039,20.24 862.039,20.24 258.82,0 437,-87.38 547.94,-223.71 -102.14,176.42 -295.52,294.44 -596.7,294.44"
             inkscape:connector-curvature="0" />
        </g>
      </g>
      <g
         id="g190"
         transform="matrix(0.13333333,0,0,-0.13333333,0,462.54667)">
        <g
           clip-path="url(#clipPath196)"
           id="g192">
          <path
             id="path204"
             style="fill:url(#linearGradient202);fill-opacity:1;fill-rule:nonzero;stroke:none"
             d="m 1333.93,1456.26 0,-381.58 c 0,-132.121 -131.13,-179.571 -292.82,-179.571 l 0,0 c -161.696,0 -292.755,47.45 -292.755,179.571 l 0,580.79"
             inkscape:connector-curvature="0" />
        </g>
      </g>
      <path
         id="path206"
         style="fill:#363254;fill-opacity:1;fill-rule:nonzero;stroke:none"
         d="m 96.896398,241.81734 0,77.43867 c 0,17.23333 14.890532,26.7224 41.918262,26.7224 27.036,0 41.928,-9.48907 41.928,-26.7224 l 0,-50.87734 c 0,-1.536 -1.29466,-2.78266 -2.88533,-2.78266 -1.59067,0 -2.884,1.24666 -2.884,2.78266 l 0,50.87734 c 0,17.48906 -19.66133,21.15893 -36.15867,21.15893 -16.4892,0 -36.1496,-3.66987 -36.1496,-21.15893 l 0,-77.43867 c 0,-1.536 -1.29213,-2.78133 -2.884396,-2.78133 -1.592666,0 -2.884266,1.24533 -2.884266,2.78133"
         inkscape:connector-curvature="0" />
      <path
         id="path208"
         style="fill:#8b9dd7;fill-opacity:1;fill-rule:nonzero;stroke:none"
         d="m 124.33693,324.19067 c 0,6.6268 -5.51187,12.00134 -12.31813,12.00134 -6.80574,0 -12.319869,-5.37454 -12.319869,-12.00134 0,-6.63466 5.514129,-21.61066 12.319869,-21.61066 6.80626,0 12.31813,14.976 12.31813,21.61066"
         inkscape:connector-curvature="0" />
      <path
         id="path210"
         style="fill:#363254;fill-opacity:1;fill-rule:nonzero;stroke:none"
         d="m 100.66093,324.19067 c 0,-6.46 5.49173,-20.68666 11.35787,-20.68666 5.86666,0 11.35826,14.22666 11.35826,20.68666 0,6.10907 -5.0916,11.0748 -11.35826,11.0748 -6.25894,0 -11.35787,-4.96573 -11.35787,-11.0748 z m -1.924532,0 c 0,7.12787 5.958402,12.92947 13.282402,12.92947 7.32493,0 13.28226,-5.8016 13.28226,-12.92947 0,-6.72133 -5.6052,-22.544 -13.28226,-22.544 -7.6704,0 -13.282402,15.82267 -13.282402,22.544"
         inkscape:connector-curvature="0" />
      <path
         id="path212"
         style="fill:#a6bde6;fill-opacity:1;fill-rule:nonzero;stroke:none"
         d="m 101.80266,324.98401 c 0,-5.93467 6.89734,-16.596 11.94374,-16.596 0.48066,0 0.94733,0.152 1.41346,0.384 -1.27133,-1.87467 -2.70626,-3.12267 -4.23013,-3.12267 -5.04853,0 -9.12707,13.408 -9.12707,19.33467"
         inkscape:connector-curvature="0" />
      <path
         id="path214"
         style="fill:#8b9dd7;fill-opacity:1;fill-rule:nonzero;stroke:none"
         d="m 134.37333,325.12934 c 0,8.74027 -5.70933,15.85227 -12.75307,15.85227 -7.05413,0 -12.76346,-7.112 -12.76346,-15.85227 0,-8.752 5.70933,-28.516 12.76346,-28.516 7.04374,0 12.75307,19.764 12.75307,28.516"
         inkscape:connector-curvature="0" />
      <path
         id="path216"
         style="fill:#363254;fill-opacity:1;fill-rule:nonzero;stroke:none"
         d="m 109.8172,325.12934 c 0,-8.62 5.70933,-27.59067 11.80306,-27.59067 6.09227,0 11.79307,18.97067 11.79307,27.59067 0,8.22667 -5.28933,14.92253 -11.79307,14.92253 -6.50573,0 -11.80306,-6.69586 -11.80306,-14.92253 z m -1.9224,0 c 0,9.25067 6.15826,16.77987 13.72546,16.77987 7.56414,0 13.71574,-7.5292 13.71574,-16.77987 0,-8.78533 -5.79227,-29.44133 -13.71574,-29.44133 -7.92653,0 -13.72546,20.656 -13.72546,29.44133"
         inkscape:connector-curvature="0" />
      <path
         id="path218"
         style="fill:#a6bde6;fill-opacity:1;fill-rule:nonzero;stroke:none"
         d="m 112.2964,326.71467 c 0,-8.428 6.90413,-23.57466 11.9448,-23.57466 0.48013,0 0.9536,0.21866 1.4124,0.54133 -1.2624,-2.67467 -2.70627,-4.43733 -4.22907,-4.43733 -5.04907,0 -9.12813,19.05466 -9.12813,27.47066"
         inkscape:connector-curvature="0" />
      <path
         id="path220"
         style="fill:#8b9dd7;fill-opacity:1;fill-rule:nonzero;stroke:none"
         d="m 141.068,329.83627 c 0,6.18747 -4.10934,11.20254 -9.18054,11.20254 -5.0692,0 -9.1792,-5.01507 -9.1792,-11.20254 0,-6.2176 4.11,-20.2016 9.1792,-20.2016 5.0712,0 9.18054,13.984 9.18054,20.2016"
         inkscape:connector-curvature="0" />
      <path
         id="path222"
         style="fill:#363254;fill-opacity:1;fill-rule:nonzero;stroke:none"
         d="m 123.66973,329.83627 c 0,-6.7016 4.35893,-19.27493 8.21773,-19.27493 3.86854,0 8.2192,12.57333 8.2192,19.27493 0,5.6692 -3.684,10.27294 -8.2192,10.27294 -4.53013,0 -8.21773,-4.60374 -8.21773,-10.27294 z m -1.92333,0 c 0,6.68907 4.55306,12.13014 10.14106,12.13014 5.59787,0 10.14054,-5.44107 10.14054,-12.13014 0,-6.09226 -4.04,-21.12826 -10.14054,-21.12826 -6.09786,0 -10.14106,15.036 -10.14106,21.12826"
         inkscape:connector-curvature="0" />
      <path
         id="path224"
         style="fill:#a6bde6;fill-opacity:1;fill-rule:nonzero;stroke:none"
         d="m 126.56933,326.14134 c -0.4652,-4.41867 3.83747,-11.744 7.18933,-12.27333 0.316,-0.0507 0.63734,0.024 0.96134,0.14533 -0.984,-1.27333 -2.096,-2.28267 -3.04867,-1.88133 -3.32187,1.42666 -5.5672,9.60533 -5.102,14.00933"
         inkscape:connector-curvature="0" />
      <g
         id="g226"
         transform="matrix(0.13333333,0,0,-0.13333333,0,462.54667)">
        <g
           clip-path="url(#clipPath232)"
           id="g228">
          <path
             id="path240"
             style="fill:url(#linearGradient238);fill-opacity:1;fill-rule:nonzero;stroke:none"
             d="m 2229.92,1718.48 0,-628.88 c 0,-132.112 -131.12,-179.53 -292.81,-179.53 l 0,0 c -161.71,0 -292.75,47.418 -292.75,179.53 l 0,361.33"
             inkscape:connector-curvature="0" />
        </g>
      </g>
      <path
         id="path242"
         style="fill:#363254;fill-opacity:1;fill-rule:nonzero;stroke:none"
         d="m 294.43466,233.41601 0,83.85066 c 0,17.4868 -19.66133,21.15454 -36.15333,21.15454 -16.488,0 -36.148,-3.66774 -36.148,-21.15454 l 0,-48.17733 c 0,-1.536 -1.292,-2.784 -2.88534,-2.784 -1.592,0 -2.884,1.248 -2.884,2.784 l 0,48.17733 c 0,17.23054 14.88667,26.72267 41.91734,26.72267 27.03333,0 41.92266,-9.49213 41.92266,-26.72267 l 0,-83.85066 c 0,-1.53733 -1.28933,-2.78 -2.88133,-2.78 -1.59467,0 -2.888,1.24267 -2.888,2.78"
         inkscape:connector-curvature="0" />
      <path
         id="path244"
         style="fill:#8b9dd7;fill-opacity:1;fill-rule:nonzero;stroke:none"
         d="m 243.80533,322.20001 c 0,6.62266 -5.51467,11.99613 -12.32,11.99613 -6.80534,0 -12.31867,-5.37347 -12.31867,-11.99613 0,-6.63467 5.51333,-21.61334 12.31867,-21.61334 6.80533,0 12.32,14.97867 12.32,21.61334"
         inkscape:connector-curvature="0" />
      <path
         id="path246"
         style="fill:#363254;fill-opacity:1;fill-rule:nonzero;stroke:none"
         d="m 220.12933,322.20001 c 0,-6.46267 5.48933,-20.68267 11.356,-20.68267 5.86933,0 11.36,14.22 11.36,20.68267 0,6.104 -5.09734,11.0732 -11.36,11.0732 -6.26134,0 -11.356,-4.9692 -11.356,-11.0732 z m -1.924,0 c 0,7.12786 5.956,12.92786 13.28,12.92786 7.324,0 13.28133,-5.8 13.28133,-12.92786 0,-6.72267 -5.60667,-22.54 -13.28133,-22.54 -7.672,0 -13.28,15.81733 -13.28,22.54"
         inkscape:connector-curvature="0" />
      <path
         id="path248"
         style="fill:#a6bde6;fill-opacity:1;fill-rule:nonzero;stroke:none"
         d="m 221.26933,322.98934 c 0,-5.932 6.896,-16.592 11.944,-16.592 0.48133,0 0.94666,0.15067 1.41333,0.38 -1.26933,-1.87467 -2.704,-3.12133 -4.22933,-3.12133 -5.048,0 -9.128,13.40933 -9.128,19.33333"
         inkscape:connector-curvature="0" />
      <path
         id="path250"
         style="fill:#8b9dd7;fill-opacity:1;fill-rule:nonzero;stroke:none"
         d="m 253.84266,323.13467 c 0,8.74534 -5.708,15.85574 -12.75733,15.85574 -7.05467,0 -12.76267,-7.1104 -12.76267,-15.85574 0,-8.752 5.708,-28.51066 12.76267,-28.51066 7.04933,0 12.75733,19.75866 12.75733,28.51066"
         inkscape:connector-curvature="0" />
      <path
         id="path252"
         style="fill:#363254;fill-opacity:1;fill-rule:nonzero;stroke:none"
         d="m 229.28399,323.13467 c 0,-8.62 5.70534,-27.58533 11.80134,-27.58533 6.09466,0 11.79466,18.96533 11.79466,27.58533 0,8.2292 -5.292,14.92814 -11.79466,14.92814 -6.50934,0 -11.80134,-6.69894 -11.80134,-14.92814 z m -1.92266,0 c 0,9.2532 6.156,16.78027 13.724,16.78027 7.564,0 13.71733,-7.52707 13.71733,-16.78027 0,-8.78133 -5.79067,-29.44266 -13.71733,-29.44266 -7.93067,0 -13.724,20.66133 -13.724,29.44266"
         inkscape:connector-curvature="0" />
      <path
         id="path254"
         style="fill:#a6bde6;fill-opacity:1;fill-rule:nonzero;stroke:none"
         d="m 231.76399,324.72401 c 0,-8.42667 6.904,-23.57334 11.94267,-23.57334 0.48267,0 0.95467,0.21734 1.41467,0.53867 -1.26134,-2.67467 -2.704,-4.43333 -4.23067,-4.43333 -5.048,0 -9.12667,19.048 -9.12667,27.468"
         inkscape:connector-curvature="0" />
      <path
         id="path256"
         style="fill:#8b9dd7;fill-opacity:1;fill-rule:nonzero;stroke:none"
         d="m 260.53333,327.84267 c 0,6.1904 -4.108,11.2056 -9.17734,11.2056 -5.06933,0 -9.18,-5.0152 -9.18,-11.2056 0,-6.21466 4.11067,-20.20266 9.18,-20.20266 5.06934,0 9.17734,13.988 9.17734,20.20266"
         inkscape:connector-curvature="0" />
      <path
         id="path258"
         style="fill:#363254;fill-opacity:1;fill-rule:nonzero;stroke:none"
         d="m 243.13599,327.84267 c 0,-6.7 4.35467,-19.27066 8.22,-19.27066 3.864,0 8.21867,12.57066 8.21867,19.27066 0,5.668 -3.69067,10.27747 -8.21867,10.27747 -4.53066,0 -8.22,-4.60947 -8.22,-10.27747 z m -1.92266,0 c 0,6.692 4.548,12.13054 10.14266,12.13054 5.592,0 10.13867,-5.43854 10.13867,-12.13054 0,-6.08933 -4.04,-21.128 -10.13867,-21.128 -6.10133,0 -10.14266,15.03867 -10.14266,21.128"
         inkscape:connector-curvature="0" />
      <path
         id="path260"
         style="fill:#a6bde6;fill-opacity:1;fill-rule:nonzero;stroke:none"
         d="m 246.03733,324.15067 c -0.464,-4.42 3.83733,-11.74266 7.18933,-12.27333 0.31467,-0.0493 0.63733,0.02 0.96133,0.14533 -0.98666,-1.276 -2.096,-2.27866 -3.04933,-1.88533 -3.32267,1.42667 -5.56533,9.608 -5.10133,14.01333"
         inkscape:connector-curvature="0" />
      <path
         id="path262"
         style="fill:#363254;fill-opacity:1;fill-rule:nonzero;stroke:none"
         d="m 27.342133,160.29468 c -1.018667,1.384 -0.659334,3.28666 0.808933,4.25466 1.462533,0.96667 3.478667,0.62134 4.496267,-0.75866 5.800533,-7.88134 18.846932,-10.05334 25.049599,-7.81467 1.235867,0.448 2.797866,0.25333 3.480666,-0.444 0.682267,-0.688 0.236,-1.61333 -1.002666,-2.06 -8.492667,-3.06933 -25.153066,-3.62533 -32.832799,6.82267"
         inkscape:connector-curvature="0" />
      <path
         id="path264"
         style="fill:#363254;fill-opacity:1;fill-rule:nonzero;stroke:none"
         d="m 52.482265,194.93868 c -5.3568,1.12933 -10.079599,-1.868 -10.544266,-6.692 -0.463067,-4.832 3.507867,-9.66 8.866133,-10.8 5.362533,-1.13334 10.083866,1.856 10.552133,6.69066 0.459867,4.83067 -3.509866,9.65734 -8.874,10.80134 z m 11.077067,-11.44534 c -0.536934,-5.62933 -6.114533,-9.09333 -12.4708,-7.756 -6.3484,1.344 -11.064533,6.98134 -10.5312,12.60267 0.5344,5.61867 6.114,9.092 12.462933,7.76 6.355734,-1.348 11.073467,-6.984 10.539067,-12.60667"
         inkscape:connector-curvature="0" />
      <path
         id="path266"
         style="fill:#fcfcfc;fill-opacity:1;fill-rule:nonzero;stroke:none"
         d="m 61.017198,184.52668 c 0.4068,4.24666 -3.066666,8.5 -7.757333,9.492 -4.709866,1.00266 -8.839599,-1.64 -9.259333,-5.88667 -0.4036,-4.24667 3.070267,-8.496 7.763067,-9.48933 4.7052,-1 8.846266,1.63333 9.253599,5.884"
         inkscape:connector-curvature="0" />
      <path
         id="path268"
         style="fill:#363254;fill-opacity:1;fill-rule:nonzero;stroke:none"
         d="m 60.329732,184.56934 c -1.2704,-3.236 -4.643733,-5.112 -7.504667,-4.21066 -1.533333,0.47466 -2.583866,1.66 -3.073466,3.14133 l 3.998933,1.97867 -3.674,2.652 c 1.361467,3.052 4.581867,4.804 7.360933,3.93333 2.8724,-0.912 4.161467,-4.26 2.892267,-7.49467"
         inkscape:connector-curvature="0" />
      <path
         id="path270"
         style="fill:#ffffff;fill-opacity:1;fill-rule:nonzero;stroke:none"
         d="m 57.385465,183.18268 c 0.711867,-0.10267 1.55,0.75866 1.854667,1.95466 0.3072,1.18134 -0.02347,2.232 -0.751067,2.344 -0.719733,0.108 -1.556266,-0.76 -1.864533,-1.952 -0.299067,-1.18 0.03853,-2.228 0.760933,-2.34666"
         inkscape:connector-curvature="0" />
      <path
         id="path272"
         style="fill:#363254;fill-opacity:1;fill-rule:nonzero;stroke:none"
         d="m 45.752132,178.30534 c -5.014133,3.86934 -6.599066,9.48934 -3.211466,12.67467 -0.293734,-0.12533 0.345733,0.69333 0.07493,0.54133 -5.333867,-2.95733 -6.224933,-11.73866 -1.314533,-16.90533 4.215066,-4.44 16.863999,-7.732 16.770266,-6.02 -0.521867,1.964 -4.224933,4.45733 -8.822933,7.16667 -1.480134,0.84133 -2.547334,1.812 -3.496267,2.54266"
         inkscape:connector-curvature="0" />
      <path
         id="path274"
         style="fill:#363254;fill-opacity:1;fill-rule:nonzero;stroke:none"
         d="m 128.138,232.84401 c -0.25827,1.31733 0.6328,2.39867 1.97706,2.39867 l 7.72494,0 c 1.34666,0 2.65466,-1.08134 2.91466,-2.39867 l 2.05734,-10.60267 c 0.25866,-1.32 1.564,-2.39866 2.912,-2.39866 l 8.36,0 c 4.768,0 8.69066,-0.50134 11.76666,-1.50534 3.08267,-0.99866 5.87734,-2.68133 8.40134,-5.04 2.10933,-1.94133 3.824,-4.084 5.13066,-6.432 1.30667,-2.34 2.24,-4.92666 2.78667,-7.756 1.336,-6.864 0.0213,-11.97066 -3.016,-16.04933 -3.81467,-5.10667 -13.54933,-5.37733 -13.54933,-5.37733 -1.33067,-0.2 -3.51734,-0.37067 -4.86267,-0.37067 l -19.36933,0 c -1.344,0 -2.652,1.08267 -2.912,2.404 z m 30.26733,-46.38933 c 4.796,0 7.98667,0.88666 9.58533,2.656 1.59467,1.76933 1.97734,4.80933 1.144,9.112 -0.876,4.484 -2.556,7.688 -5.044,9.604 -2.488,1.91466 -8.93066,2.608 -8.93066,2.608 -1.34,0.14666 -3.53467,0.26533 -4.87734,0.26533 l -2.78133,0 c -1.344,0 -2.23867,-1.08133 -1.98,-2.4 L 149.3,188.85734 c 0.256,-1.32 1.56666,-2.40266 2.90933,-2.40266 l 6.196,0"
         inkscape:connector-curvature="0" />
      <path
         id="path276"
         style="fill:none;stroke:#ffffff;stroke-width:5.33333302;stroke-linecap:butt;stroke-linejoin:miter;stroke-miterlimit:4;stroke-dasharray:none;stroke-opacity:1"
         d="m 128.138,232.84401 c -0.25827,1.31733 0.6328,2.39867 1.97706,2.39867 l 7.72494,0 c 1.34666,0 2.65466,-1.08134 2.91466,-2.39867 l 2.05734,-10.60267 c 0.25866,-1.32 1.564,-2.39866 2.912,-2.39866 l 8.36,0 c 4.768,0 8.69066,-0.50134 11.76666,-1.50534 3.08267,-0.99866 5.87734,-2.68133 8.40134,-5.04 2.10933,-1.94133 3.824,-4.084 5.13066,-6.432 1.30667,-2.34 2.24,-4.92666 2.78667,-7.756 1.336,-6.864 0.0213,-11.97066 -3.016,-16.04933 -3.81467,-5.10667 -13.54933,-5.37733 -13.54933,-5.37733 -1.33067,-0.2 -3.51734,-0.37067 -4.86267,-0.37067 l -19.36933,0 c -1.344,0 -2.652,1.08267 -2.912,2.404 z m 30.26733,-46.38933 c 4.796,0 7.98667,0.88666 9.58533,2.656 1.59467,1.76933 1.97734,4.80933 1.144,9.112 -0.876,4.484 -2.556,7.688 -5.044,9.604 -2.488,1.91466 -8.93066,2.608 -8.93066,2.608 -1.34,0.14666 -3.53467,0.26533 -4.87734,0.26533 l -2.78133,0 c -1.344,0 -2.23867,-1.08133 -1.98,-2.4 L 149.3,188.85734 c 0.256,-1.32 1.56666,-2.40266 2.90933,-2.40266 z"
         inkscape:connector-curvature="0" />
      <path
         id="path278"
         style="fill:#363254;fill-opacity:1;fill-rule:nonzero;stroke:none"
         d="m 194.33866,164.31334 c 0.256,-1.31733 1.564,-2.39733 2.908,-2.39733 l 7.628,0 c 1.34667,0 2.236,1.08 1.97733,2.39733 l -2.05866,10.60267 c -0.25734,1.32133 0.63866,2.396 1.98,2.396 l 6.25733,0 c 1.344,0 3.54,0.116 4.876,0.25333 0,0 9.12533,0.10667 12.08667,3.42134 2.412,2.69866 3.46,6.416 2.39466,11.89733 l -4.768,24.55867 c -0.25466,1.32 -1.56666,2.4 -2.912,2.4 l -7.824,0 c -1.34533,0 -2.23733,-1.08 -1.98,-2.4 l 4.05067,-20.83334 c 0.256,-1.31866 0.544,-3.496 0.64267,-4.84 0,0 0.18,-2.46533 -0.80534,-3.52266 -0.98133,-1.06134 -3.07733,-1.58934 -6.28,-1.58934 l -7.55733,0 c -1.34667,0 -2.65067,1.07734 -2.912,2.39734 l -5.51066,28.388 c -0.25734,1.32 -1.56534,2.4 -2.91067,2.4 l -7.62933,0 c -1.34534,0 -2.23467,-1.08 -1.97867,-2.4 l 10.32533,-53.12934"
         inkscape:connector-curvature="0" />
      <path
         id="path280"
         style="fill:none;stroke:#ffffff;stroke-width:5.33333302;stroke-linecap:butt;stroke-linejoin:miter;stroke-miterlimit:4;stroke-dasharray:none;stroke-opacity:1"
         d="m 194.33866,164.31334 c 0.256,-1.31733 1.564,-2.39733 2.908,-2.39733 l 7.628,0 c 1.34667,0 2.236,1.08 1.97733,2.39733 l -2.05866,10.60267 c -0.25734,1.32133 0.63866,2.396 1.98,2.396 l 6.25733,0 c 1.344,0 3.54,0.116 4.876,0.25333 0,0 9.12533,0.10667 12.08667,3.42134 2.412,2.69866 3.46,6.416 2.39466,11.89733 l -4.768,24.55867 c -0.25466,1.32 -1.56666,2.4 -2.912,2.4 l -7.824,0 c -1.34533,0 -2.23733,-1.08 -1.98,-2.4 l 4.05067,-20.83334 c 0.256,-1.31866 0.544,-3.496 0.64267,-4.84 0,0 0.18,-2.46533 -0.80534,-3.52266 -0.98133,-1.06134 -3.07733,-1.58934 -6.28,-1.58934 l -7.55733,0 c -1.34667,0 -2.65067,1.07734 -2.912,2.39734 l -5.51066,28.388 c -0.25734,1.32 -1.56534,2.4 -2.91067,2.4 l -7.62933,0 c -1.34534,0 -2.23467,-1.08 -1.97867,-2.4 z"
         inkscape:connector-curvature="0" />
      <path
         id="path282"
         style="fill:#363254;fill-opacity:1;fill-rule:nonzero;stroke:none"
         d="m 233.03066,232.84401 c -0.25867,1.31733 0.63333,2.39867 1.98,2.39867 l 7.724,0 c 1.34133,0 2.656,-1.08134 2.91067,-2.39867 l 2.05866,-10.60267 c 0.25734,-1.32 1.568,-2.39866 2.90934,-2.39866 l 8.364,0 c 4.76666,0 8.68666,-0.50134 11.77066,-1.50534 3.07334,-0.99866 5.87334,-2.68133 8.39334,-5.04 2.116,-1.94133 3.82266,-4.084 5.13333,-6.432 1.308,-2.34 2.23733,-4.92666 2.788,-7.756 1.33467,-6.864 0.12667,-12.04933 -3.01867,-16.04933 -3.90266,-4.96533 -13.55066,-5.37733 -13.55066,-5.37733 -1.33067,-0.2 -3.51867,-0.37067 -4.86267,-0.37067 l -19.36933,0 c -1.34267,0 -2.65467,1.08267 -2.90934,2.404 z m 30.27067,-46.38933 c 4.79066,0 7.984,0.88666 9.58533,2.656 1.59067,1.76933 1.972,4.80933 1.13733,9.112 -0.87466,4.484 -2.548,7.688 -5.04,9.604 -2.492,1.91466 -8.93466,2.608 -8.93466,2.608 -1.33467,0.14666 -3.528,0.26533 -4.876,0.26533 l -2.784,0 c -1.34667,0 -2.232,-1.08133 -1.97734,-2.4 l 3.776,-19.44267 c 0.25867,-1.32 1.568,-2.40266 2.912,-2.40266 l 6.20134,0"
         inkscape:connector-curvature="0" />
      <path
         id="path284"
         style="fill:none;stroke:#ffffff;stroke-width:5.33333302;stroke-linecap:butt;stroke-linejoin:miter;stroke-miterlimit:4;stroke-dasharray:none;stroke-opacity:1"
         d="m 233.03066,232.84401 c -0.25867,1.31733 0.63333,2.39867 1.98,2.39867 l 7.724,0 c 1.34133,0 2.656,-1.08134 2.91067,-2.39867 l 2.05866,-10.60267 c 0.25734,-1.32 1.568,-2.39866 2.90934,-2.39866 l 8.364,0 c 4.76666,0 8.68666,-0.50134 11.77066,-1.50534 3.07334,-0.99866 5.87334,-2.68133 8.39334,-5.04 2.116,-1.94133 3.82266,-4.084 5.13333,-6.432 1.308,-2.34 2.23733,-4.92666 2.788,-7.756 1.33467,-6.864 0.12667,-12.04933 -3.01867,-16.04933 -3.90266,-4.96533 -13.55066,-5.37733 -13.55066,-5.37733 -1.33067,-0.2 -3.51867,-0.37067 -4.86267,-0.37067 l -19.36933,0 c -1.34267,0 -2.65467,1.08267 -2.90934,2.404 z m 30.27067,-46.38933 c 4.79066,0 7.984,0.88666 9.58533,2.656 1.59067,1.76933 1.972,4.80933 1.13733,9.112 -0.87466,4.484 -2.548,7.688 -5.04,9.604 -2.492,1.91466 -8.93466,2.608 -8.93466,2.608 -1.33467,0.14666 -3.528,0.26533 -4.876,0.26533 l -2.784,0 c -1.34667,0 -2.232,-1.08133 -1.97734,-2.4 l 3.776,-19.44267 c 0.25867,-1.32 1.568,-2.40266 2.912,-2.40266 z"
         inkscape:connector-curvature="0" />
      <path
         id="path286"
         style="fill:#363254;fill-opacity:1;fill-rule:nonzero;stroke:none"
         d="m 128.138,232.84401 c -0.25827,1.31733 0.6328,2.39867 1.97706,2.39867 l 7.72494,0 c 1.34666,0 2.65466,-1.08134 2.91466,-2.39867 l 2.05734,-10.60267 c 0.25866,-1.32 1.564,-2.39866 2.912,-2.39866 l 8.36,0 c 4.768,0 8.69066,-0.50134 11.76666,-1.50534 3.08267,-0.99866 5.87734,-2.68133 8.40134,-5.04 2.10933,-1.94133 3.824,-4.084 5.13066,-6.432 1.30667,-2.34 2.24,-4.92666 2.78667,-7.756 1.336,-6.864 0.0213,-11.97066 -3.016,-16.04933 -3.81467,-5.10667 -13.54933,-5.37733 -13.54933,-5.37733 -1.33067,-0.2 -3.51734,-0.37067 -4.86267,-0.37067 l -19.36933,0 c -1.344,0 -2.652,1.08267 -2.912,2.404 z m 30.26733,-46.38933 c 4.796,0 7.98667,0.88666 9.58533,2.656 1.59467,1.76933 1.97734,4.80933 1.144,9.112 -0.876,4.484 -2.556,7.688 -5.044,9.604 -2.488,1.91466 -8.93066,2.608 -8.93066,2.608 -1.34,0.14666 -3.53467,0.26533 -4.87734,0.26533 l -2.78133,0 c -1.344,0 -2.23867,-1.08133 -1.98,-2.4 L 149.3,188.85734 c 0.256,-1.32 1.56666,-2.40266 2.90933,-2.40266 l 6.196,0"
         inkscape:connector-curvature="0" />
      <path
         id="path288"
         style="fill:#363254;fill-opacity:1;fill-rule:nonzero;stroke:none"
         d="m 194.33866,164.31334 c 0.256,-1.31733 1.564,-2.39733 2.908,-2.39733 l 7.628,0 c 1.34667,0 2.236,1.08 1.97733,2.39733 l -2.05866,10.60267 c -0.25734,1.32133 0.63866,2.396 1.98,2.396 l 6.25733,0 c 1.344,0 3.54,0.116 4.876,0.25333 0,0 9.12533,0.10667 12.08667,3.42134 2.412,2.69866 3.46,6.416 2.39466,11.89733 l -4.768,24.55867 c -0.25466,1.32 -1.56666,2.4 -2.912,2.4 l -7.824,0 c -1.34533,0 -2.23733,-1.08 -1.98,-2.4 l 4.05067,-20.83334 c 0.256,-1.31866 0.544,-3.496 0.64267,-4.84 0,0 0.18,-2.46533 -0.80534,-3.52266 -0.98133,-1.06134 -3.07733,-1.58934 -6.28,-1.58934 l -7.55733,0 c -1.34667,0 -2.65067,1.07734 -2.912,2.39734 l -5.51066,28.388 c -0.25734,1.32 -1.56534,2.4 -2.91067,2.4 l -7.62933,0 c -1.34534,0 -2.23467,-1.08 -1.97867,-2.4 l 10.32533,-53.12934"
         inkscape:connector-curvature="0" />
      <path
         id="path290"
         style="fill:#363254;fill-opacity:1;fill-rule:nonzero;stroke:none"
         d="m 233.03066,232.84401 c -0.25867,1.31733 0.63333,2.39867 1.98,2.39867 l 7.724,0 c 1.34133,0 2.656,-1.08134 2.91067,-2.39867 l 2.05866,-10.60267 c 0.25734,-1.32 1.568,-2.39866 2.90934,-2.39866 l 8.364,0 c 4.76666,0 8.68666,-0.50134 11.77066,-1.50534 3.07334,-0.99866 5.87334,-2.68133 8.39334,-5.04 2.116,-1.94133 3.82266,-4.084 5.13333,-6.432 1.308,-2.34 2.23733,-4.92666 2.788,-7.756 1.33467,-6.864 0.12667,-12.04933 -3.01867,-16.04933 -3.90266,-4.96533 -13.55066,-5.37733 -13.55066,-5.37733 -1.33067,-0.2 -3.51867,-0.37067 -4.86267,-0.37067 l -19.36933,0 c -1.34267,0 -2.65467,1.08267 -2.90934,2.404 z m 30.27067,-46.38933 c 4.79066,0 7.984,0.88666 9.58533,2.656 1.59067,1.76933 1.972,4.80933 1.13733,9.112 -0.87466,4.484 -2.548,7.688 -5.04,9.604 -2.492,1.91466 -8.93466,2.608 -8.93466,2.608 -1.33467,0.14666 -3.528,0.26533 -4.876,0.26533 l -2.784,0 c -1.34667,0 -2.232,-1.08133 -1.97734,-2.4 l 3.776,-19.44267 c 0.25867,-1.32 1.568,-2.40266 2.912,-2.40266 l 6.20134,0"
         inkscape:connector-curvature="0" />
      <g
         id="g292"
         transform="matrix(0.13333333,0,0,-0.13333333,0,462.54667)">
        <g
           clip-path="url(#clipPath298)"
           id="g294">
          <path
             id="path306"
             style="fill:url(#linearGradient304);fill-opacity:1;fill-rule:nonzero;stroke:none"
             d="m 571.879,2500.55 c 0,0 171.527,117.93 279.867,158.35 34.531,12.89 283.674,78.71 324.064,-351.49 22.08,-235.55 -17.68,-398.24 -210.83,-427.71 -115.589,-17.66 -97.691,-103.81 -97.691,-103.81"
             inkscape:connector-curvature="0" />
        </g>
      </g>
      <path
         id="path308"
         style="fill:#363254;fill-opacity:1;fill-rule:nonzero;stroke:none"
         d="m 112.5224,105.43201 c -14.613602,5.45467 -36.998935,20.79067 -37.947469,21.44267 -1.294666,0.89067 -1.597866,2.62933 -0.671866,3.87866 0.922933,1.25067 2.726666,1.54134 4.0224,0.64934 0.2256,-0.15067 22.742795,-15.58 36.676135,-20.78267 0.43586,-0.16 10.69053,-3.872 20.53306,2.02267 10.24667,6.14 16.73467,20.83333 18.772,42.50133 3.244,34.62933 -4.44,50.784 -25.69213,54.03067 -6.02493,0.91733 -10.4104,3.22933 -13.04,6.87866 -3.45267,4.77734 -2.412,10.03467 -2.36307,10.25734 0.31307,1.49466 1.814,2.45866 3.36827,2.172 1.55627,-0.28534 2.5776,-1.74267 2.29213,-3.24534 -0.007,-0.0267 -0.58066,-3.264 1.4792,-6.064 1.7068,-2.31866 4.78907,-3.836 9.16454,-4.50666 31.5964,-4.82134 32.91773,-34.612 30.53773,-60.02534 -2.23867,-23.812 -9.468,-39.53333 -21.47333,-46.72399 -12.05294,-7.22 -24.29774,-2.992 -25.6576,-2.48534"
         inkscape:connector-curvature="0" />
      <g
         id="g310"
         transform="matrix(0.13333333,0,0,-0.13333333,0,462.54667)">
        <g
           clip-path="url(#clipPath316)"
           id="g312">
          <path
             id="path324"
             style="fill:url(#linearGradient322);fill-opacity:1;fill-rule:nonzero;stroke:none"
             d="m 747.344,2531.75 c 194.211,121.45 302.026,59.35 302.026,59.35 -84.444,77.21 -179.436,51.62 -200.444,43.74 -107.969,-40.42 -316.485,-189.8 -316.485,-189.8 0,0 -28.195,-50.01 27.989,-39.16 0,0 122.211,85.38 186.914,125.87"
             inkscape:connector-curvature="0" />
        </g>
      </g>
      <path
         id="path326"
         style="fill:#363254;fill-opacity:1;fill-rule:nonzero;stroke:none"
         d="m 90.301598,201.39468 c -0.225067,13.14666 -4.5776,25.11866 -11.366667,31.22533 -3.080266,2.77467 -6.516133,4.148 -9.945333,3.98 -1.057866,-0.0573 -1.959333,0.728 -2.020266,1.75067 -0.05053,1.02666 0.762933,1.896 1.8244,1.94933 4.492666,0.22667 8.904666,-1.49067 12.766666,-4.96667 7.524533,-6.77333 12.3464,-19.75466 12.586,-33.884 0.0208,-1.01866 -0.824,-1.86533 -1.8876,-1.88133 -1.063467,-0.0147 -1.938,0.80267 -1.9572,1.82667"
         inkscape:connector-curvature="0" />
      <path
         id="path328"
         style="fill:#363254;fill-opacity:1;fill-rule:nonzero;stroke:none"
         d="m 98.631198,192.00668 c -1.4484,3.32133 -3.9796,5.43733 -6.950534,5.79066 -2.896266,0.34134 -5.839066,-1.01333 -7.874399,-3.628 -0.633867,-0.81733 -1.843734,-0.98533 -2.692267,-0.36933 -0.8484,0.61333 -1.021867,1.776 -0.3828,2.59333 2.8724,3.69467 7.143733,5.59467 11.421466,5.088 4.376534,-0.528 8.026536,-3.45733 10.025996,-8.04 0.40987,-0.94533 -0.0541,-2.024 -1.0292,-2.42533 -0.9812,-0.396 -2.103596,0.048 -2.518262,0.99067"
         inkscape:connector-curvature="0" />
    </g>
    <text
       xml:space="preserve"
       style="font-style:normal;font-weight:normal;font-size:40px;line-height:125%;font-family:sans-serif;letter-spacing:0px;word-spacing:0px;fill:#333333;fill-opacity:1;stroke:none;stroke-width:1px;stroke-linecap:butt;stroke-linejoin:miter;stroke-opacity:1"
       x="34.749466"
       y="749.55664"
       id="text4050"
       sodipodi:linespacing="125%"><tspan
         sodipodi:role="line"
         id="tspan4052"
         x="34.749466"
         y="749.55664">Fetching results of query</tspan></text>
    <text
       xml:space="preserve"
       style="font-style:normal;font-weight:normal;font-size:40px;line-height:125%;font-family:sans-serif;letter-spacing:0px;word-spacing:0px;fill:#000000;fill-opacity:1;stroke:none;stroke-width:1px;stroke-linecap:butt;stroke-linejoin:miter;stroke-opacity:1"
       x="58.675247"
       y="887.33179"
       id="text4946"
       sodipodi:linespacing="125%"><tspan
         sodipodi:role="line"
         id="tspan4948"
         x="58.675247"
         y="887.33179"
         style="font-size:12.5px"><tspan
   style="font-size:12.5px;fill:#ff6600"
   id="tspan4968">while</tspan>( $result = $results<tspan
   id="tspan4950"
   style="font-size:12.5px;fill:#d45500">-&gt;</tspan>fetch_assoc() ) {</tspan><tspan
         sodipodi:role="line"
         x="58.675247"
         y="902.95679"
         style="font-size:12.5px"
         id="tspan4966">    $comments[] = $result; </tspan><tspan
         sodipodi:role="line"
         x="58.675247"
         y="918.58179"
         style="font-size:12.5px"
         id="tspan4964">}</tspan><tspan
         id="tspan4958"
         sodipodi:role="line"
         x="58.675247"
         y="934.20679"
         style="font-size:12.5px" /></text>
    <g
       id="g5028"
       transform="translate(0,-10)">
      <rect
         style="fill:#f9f9f9;fill-opacity:1"
         id="rect5014"
         width="612.15247"
         height="85.004509"
         x="34.304577"
         y="408.74933" />
      <text
         sodipodi:linespacing="125%"
         id="text4042"
         y="266.93365"
         x="36.429153"
         style="font-style:normal;font-weight:normal;font-size:40px;line-height:125%;font-family:sans-serif;letter-spacing:0px;word-spacing:0px;fill:#333333;fill-opacity:1;stroke:none;stroke-width:1px;stroke-linecap:butt;stroke-linejoin:miter;stroke-opacity:1"
         xml:space="preserve"><tspan
           y="266.93365"
           x="36.429153"
           id="tspan4044"
           sodipodi:role="line">Connecting</tspan></text>
      <rect
         y="286.81381"
         x="34.304577"
         height="61.619305"
         width="612.15247"
         id="rect5012"
         style="fill:#f9f9f9;fill-opacity:1" />
      <text
         sodipodi:linespacing="125%"
         id="text4054"
         y="322.61746"
         x="57.43013"
         style="font-style:normal;font-weight:normal;font-size:40px;line-height:125%;font-family:sans-serif;letter-spacing:0px;word-spacing:0px;fill:#000000;fill-opacity:1;stroke:none;stroke-width:1px;stroke-linecap:butt;stroke-linejoin:miter;stroke-opacity:1"
         xml:space="preserve"><tspan
           style="font-size:12.5px"
           y="322.61746"
           x="57.43013"
           id="tspan4056"
           sodipodi:role="line">$mysqli = <tspan
   id="tspan4058"
   style="font-size:12.5px;fill:#ff7f2a">new</tspan> mysqli(<tspan
   id="tspan4072"
   style="font-size:12.5px;fill:#5555ff">'localhost'</tspan>, <tspan
   id="tspan4074"
   style="font-size:12.5px;fill:#5555ff">'mysql_username'</tspan>, <tspan
   id="tspan4076"
   style="font-size:12.5px;fill:#5555ff">'mysql_password'</tspan>, <tspan
   id="tspan4078"
   style="font-size:12.5px;fill:#5555ff">'database_name'</tspan>);</tspan></text>
      <text
         xml:space="preserve"
         style="font-style:normal;font-weight:normal;font-size:40px;line-height:125%;font-family:sans-serif;letter-spacing:0px;word-spacing:0px;fill:#000000;fill-opacity:1;stroke:none;stroke-width:1px;stroke-linecap:butt;stroke-linejoin:miter;stroke-opacity:1"
         x="58.675247"
         y="441.10992"
         id="text4060"
         sodipodi:linespacing="125%"><tspan
           sodipodi:role="line"
           id="tspan4062"
           x="58.675247"
           y="441.10992"
           style="font-size:12.5px"><tspan
   id="tspan4070"
   style="font-size:12.5px;fill:#ff6600">if </tspan>( $mysqli<tspan
   id="tspan4068"
   style="font-size:12.5px;fill:#ff6600">-&gt;</tspan><tspan
   style="font-size:12.5px;fill:#1a1a1a"
   id="tspan4884">connect_errno </tspan>) {</tspan><tspan
           id="tspan4886"
           sodipodi:role="line"
           x="58.675247"
           y="456.73492"
           style="font-size:12.5px"><tspan
   id="tspan4888"
   style="font-size:12.5px;fill:#ff6600">    echo</tspan><tspan
   id="tspan4892"
   style="font-size:12.5px;fill:#5555ff"> &quot;failed to connect to MySQL: &quot;</tspan> . $mysqli<tspan
   id="tspan4890"
   style="font-size:12.5px;fill:#ff6600">-&gt;</tspan>connect_error</tspan><tspan
           id="tspan4066"
           sodipodi:role="line"
           x="58.675247"
           y="472.35992"
           style="font-size:12.5px">}</tspan></text>
      <text
         xml:space="preserve"
         style="font-style:normal;font-weight:normal;font-size:40px;line-height:125%;font-family:sans-serif;letter-spacing:0px;word-spacing:0px;fill:#333333;fill-opacity:1;stroke:none;stroke-width:1px;stroke-linecap:butt;stroke-linejoin:miter;stroke-opacity:1"
         x="37.43013"
         y="390.17584"
         id="text4970"
         sodipodi:linespacing="125%"><tspan
           sodipodi:role="line"
           id="tspan4972"
           x="37.43013"
           y="390.17584"
           style="font-size:15px;fill:#333333">Check for errors connecting to the database such as wrong mysql password</tspan></text>
    </g>
    <text
       xml:space="preserve"
       style="font-style:normal;font-weight:normal;font-size:40px;line-height:125%;font-family:sans-serif;letter-spacing:0px;word-spacing:0px;fill:#1a1a1a;fill-opacity:1;stroke:none;stroke-width:1px;stroke-linecap:butt;stroke-linejoin:miter;stroke-opacity:1"
       x="37.43013"
       y="794.11505"
       id="text4994"
       sodipodi:linespacing="125%"><tspan
         sodipodi:role="line"
         id="tspan4996"
         x="37.43013"
         y="794.11505"
         style="font-size:15px;fill:#1a1a1a">$results-&gt;fetch_assoc fetches one row from the results class as an associative </tspan><tspan
         sodipodi:role="line"
         x="37.43013"
         y="812.86505"
         style="font-size:15px;fill:#1a1a1a"
         id="tspan4998">array using a while loop we can fetch all the results and put them into </tspan><tspan
         sodipodi:role="line"
         x="37.43013"
         y="831.61505"
         style="font-size:15px;fill:#1a1a1a"
         id="tspan5026">an array ( $comments )</tspan></text>
    <g
       id="g5053"
       transform="translate(0,-14)">
      <rect
         style="fill:#f9f9f9;fill-opacity:1"
         id="rect5018"
         width="612.15247"
         height="61.619305"
         x="34.304577"
         y="639.23523" />
      <text
         sodipodi:linespacing="125%"
         id="text4046"
         y="558.74078"
         x="34.749466"
         style="font-style:normal;font-weight:normal;font-size:40px;line-height:125%;font-family:sans-serif;letter-spacing:0px;word-spacing:0px;fill:#333333;fill-opacity:1;stroke:none;stroke-width:1px;stroke-linecap:butt;stroke-linejoin:miter;stroke-opacity:1"
         xml:space="preserve"><tspan
           y="558.74078"
           x="34.749466"
           id="tspan4048"
           sodipodi:role="line">Executing sql query</tspan></text>
      <text
         xml:space="preserve"
         style="font-style:normal;font-weight:normal;font-size:40px;line-height:125%;font-family:sans-serif;letter-spacing:0px;word-spacing:0px;fill:#000000;fill-opacity:1;stroke:none;stroke-width:1px;stroke-linecap:butt;stroke-linejoin:miter;stroke-opacity:1"
         x="57.43013"
         y="673.9032"
         id="text4912"
         sodipodi:linespacing="125%"><tspan
           sodipodi:role="line"
           id="tspan4914"
           x="57.43013"
           y="673.9032"
           style="font-size:12.5px">$results = $mysqli<tspan
   id="tspan4944"
   style="font-size:12.5px;fill:#d45500">-&gt;</tspan>query(<tspan
   id="tspan4928"
   style="font-size:12.5px;fill:#5555ff">&quot;<tspan
   id="tspan4930"
   style="font-size:12.5px;fill:#4400aa">SELECT</tspan> firstName, email, comment <tspan
   id="tspan4932"
   style="font-size:12.5px;fill:#4400aa">FROM</tspan> Comments&quot;</tspan>);</tspan><tspan
           id="tspan4926"
           sodipodi:role="line"
           x="57.43013"
           y="689.5282"
           style="font-size:12.5px" /></text>
      <text
         xml:space="preserve"
         style="font-style:normal;font-weight:normal;font-size:40px;line-height:125%;font-family:sans-serif;letter-spacing:0px;word-spacing:0px;fill:#1a1a1a;fill-opacity:1;stroke:none;stroke-width:1px;stroke-linecap:butt;stroke-linejoin:miter;stroke-opacity:1"
         x="37.43013"
         y="602.45758"
         id="text5002"
         sodipodi:linespacing="125%"><tspan
           sodipodi:role="line"
           x="37.43013"
           y="602.45758"
           style="font-size:15px;fill:#1a1a1a"
           id="tspan5006">$mysqli-&gt;query executes any mysql code in the string you give it then returns the </tspan><tspan
           id="tspan5010"
           sodipodi:role="line"
           x="37.43013"
           y="621.20758"
           style="font-size:15px;fill:#1a1a1a">results in a results object.</tspan></text>
    </g>
  </g>
</svg>
