<?xml version="1.0" encoding="UTF-8" standalone="no"?>
<!-- Created with Inkscape (http://www.inkscape.org/) -->

<svg
   xmlns:dc="http://purl.org/dc/elements/1.1/"
   xmlns:cc="http://creativecommons.org/ns#"
   xmlns:rdf="http://www.w3.org/1999/02/22-rdf-syntax-ns#"
   xmlns:svg="http://www.w3.org/2000/svg"
   xmlns="http://www.w3.org/2000/svg"
   xmlns:sodipodi="http://sodipodi.sourceforge.net/DTD/sodipodi-0.dtd"
   xmlns:inkscape="http://www.inkscape.org/namespaces/inkscape"
   width="210mm"
   height="297mm"
   viewBox="0 0 744.09448819 1052.3622047"
   id="svg2"
   version="1.1"
   inkscape:version="0.91 r13725"
   sodipodi:docname="Database_actions.svg">
  <defs
     id="defs4">
    <inkscape:perspective
       sodipodi:type="inkscape:persp3d"
       inkscape:vp_x="0 : 526.1811 : 1"
       inkscape:vp_y="0 : 1000 : 0"
       inkscape:vp_z="744.09449 : 526.1811 : 1"
       inkscape:persp3d-origin="372.04724 : 350.7874 : 1"
       id="perspective3336" />
  </defs>
  <sodipodi:namedview
     id="base"
     pagecolor="#ffffff"
     bordercolor="#666666"
     borderopacity="1.0"
     inkscape:pageopacity="0.0"
     inkscape:pageshadow="2"
     inkscape:zoom="0.7"
     inkscape:cx="457.94062"
     inkscape:cy="365.46029"
     inkscape:document-units="px"
     inkscape:current-layer="layer1"
     showgrid="false"
     showguides="false"
     inkscape:guide-bbox="true"
     inkscape:snap-bbox="true"
     inkscape:bbox-nodes="true"
     inkscape:snap-bbox-edge-midpoints="true"
     inkscape:snap-bbox-midpoints="true"
     inkscape:bbox-paths="true"
     inkscape:window-width="1920"
     inkscape:window-height="1136"
     inkscape:window-x="1920"
     inkscape:window-y="0"
     inkscape:window-maximized="1">
    <sodipodi:guide
       position="230.6261,504.22671"
       orientation="0,1"
       id="guide4496" />
    <sodipodi:guide
       position="232.19083,399.85366"
       orientation="0,1"
       id="guide4498" />
    <sodipodi:guide
       position="233.62034,287.88114"
       orientation="0,1"
       id="guide4500" />
    <sodipodi:guide
       position="232.47258,107.89587"
       orientation="0,1"
       id="guide4502" />
    <sodipodi:guide
       position="204.28572,484.32058"
       orientation="0,1"
       id="guide4504" />
    <sodipodi:guide
       position="160.80681,379.94748"
       orientation="0,1"
       id="guide4508" />
    <sodipodi:guide
       position="167.25526,267.975"
       orientation="0,1"
       id="guide4510" />
    <sodipodi:guide
       position="156.85618,87.989768"
       orientation="0,1"
       id="guide4512" />
    <sodipodi:guide
       position="46.337508,578.62067"
       orientation="1,0"
       id="guide5369" />
    <sodipodi:guide
       position="85.570535,578.62067"
       orientation="1,0"
       id="guide5371" />
  </sodipodi:namedview>
  <metadata
     id="metadata7">
    <rdf:RDF>
      <cc:Work
         rdf:about="">
        <dc:format>image/svg+xml</dc:format>
        <dc:type
           rdf:resource="http://purl.org/dc/dcmitype/StillImage" />
        <dc:title />
      </cc:Work>
    </rdf:RDF>
  </metadata>
  <g
     inkscape:label="Layer 1"
     inkscape:groupmode="layer"
     id="layer1">
    <text
       xml:space="preserve"
       style="font-style:normal;font-weight:normal;font-size:27.99991989px;line-height:125%;font-family:sans-serif;letter-spacing:0px;word-spacing:0px;fill:#e48e00;fill-opacity:1;stroke:none;stroke-width:1px;stroke-linecap:butt;stroke-linejoin:miter;stroke-opacity:1"
       x="99.050926"
       y="720.26685"
       id="text3538"
       sodipodi:linespacing="125%"
       transform="scale(0.95846318,1.0433369)"><tspan
         sodipodi:role="line"
         id="tspan3540"
         x="99.050926"
         y="720.26685">D<tspan
   style="fill:#483e37"
   id="tspan4398">elete</tspan></tspan></text>
    <text
       xml:space="preserve"
       style="font-style:normal;font-weight:normal;font-size:18.29044724px;line-height:125%;font-family:sans-serif;letter-spacing:0px;word-spacing:0px;fill:#006089;fill-opacity:1;stroke:none;stroke-width:1px;stroke-linecap:butt;stroke-linejoin:miter;stroke-opacity:1"
       x="279.99417"
       y="720.66333"
       id="text3554"
       sodipodi:linespacing="125%"
       transform="scale(0.95846318,1.0433369)"><tspan
         sodipodi:role="line"
         id="tspan3556"
         x="279.99417"
         y="720.66333">DELETE</tspan></text>
    <text
       sodipodi:linespacing="125%"
       id="text4412"
       y="753.31757"
       x="280.62592"
       style="font-style:normal;font-weight:normal;font-size:15px;line-height:125%;font-family:sans-serif;letter-spacing:0px;word-spacing:0px;fill:#006089;fill-opacity:0.35672518;stroke:none;stroke-width:1px;stroke-linecap:butt;stroke-linejoin:miter;stroke-opacity:1"
       xml:space="preserve"
       transform="scale(0.95846318,1.0433369)"><tspan
         y="753.31757"
         x="280.62592"
         id="tspan4414"
         sodipodi:role="line">DELETE FROM Comments</tspan><tspan
         y="772.06757"
         x="280.62592"
         sodipodi:role="line"
         id="tspan4422">WHERE id='1'</tspan></text>
    <g
       id="g3508"
       transform="matrix(0.44211346,0,0,0.48126341,276.05911,196.09751)">
      <g
         id="g3470"
         style="fill:#00618a;fill-rule:nonzero;stroke:none;stroke-width:0.87088001;stroke-linecap:butt;stroke-linejoin:miter;stroke-dasharray:none"
         transform="translate(0.738281,121.593)">
        <path
           id="path3472"
           d="m 0,62.235 c 0,0 12.8418,0 12.8418,0 0,0 0,-50.711 0,-50.711 0,0 19.8808,44.208 19.8808,44.208 2.3457,5.351 5.5567,7.244 11.8536,7.244 6.2978,0 9.3847,-1.893 11.7314,-7.244 0,0 19.8799,-44.208 19.8799,-44.208 0,0 0,50.711 0,50.711 0,0 12.8428,0 12.8428,0 0,0 0,-50.628 0,-50.628 0,-4.939 -1.9766,-7.327 -6.0508,-8.561 C 73.2246,0 66.6797,2.634 63.7158,9.22 c 0,0 -19.5098,43.63 -19.5098,43.63 0,0 -18.8925,-43.63 -18.8925,-43.63 C 22.4736,2.634 15.8056,0 6.05078,3.046 1.97559,4.28 0,6.668 0,11.607 c 0,0 0,50.628 0,50.628 z"
           inkscape:connector-curvature="0" />
      </g>
      <g
         id="g3474"
         style="fill:#00618a;fill-rule:nonzero;stroke:none;stroke-width:0.87088001;stroke-linecap:butt;stroke-linejoin:miter;stroke-dasharray:none"
         transform="translate(100.444,142.416)">
        <path
           id="path3476"
           d="m 0.002,0.136 c 0,0 12.838,0 12.838,0 0,0 0,27.938 0,27.938 -0.12,1.518 0.487,5.08 7.522,5.191 3.589,0.056 27.7,0 27.925,0 0,0 0,-33.265 0,-33.265 0,0 12.868,0 12.868,0 0.059,0 -0.013,45.364 -0.012,45.557 0.071,11.188 -13.882,13.618 -20.313,13.806 0,0 -40.549,0 -40.549,0 0,0 0,-8.639 0,-8.639 0.071,0 40.519,0.008 40.621,-0.002 8.265,-0.873 7.289,-4.981 7.288,-6.364 0,0 0,-3.368 0,-3.368 0,0 -27.295,0 -27.295,0 C 8.196,40.873 0.109,35.331 0.009,28.955 0,28.364 0.283,0.415 0.002,0.136 Z"
           inkscape:connector-curvature="0" />
      </g>
      <g
         id="g3478"
         style="fill:#e48e00;fill-rule:nonzero;stroke:none;stroke-width:0.87088001;stroke-linecap:butt;stroke-linejoin:miter;stroke-dasharray:none"
         transform="translate(171.496,124.557)">
        <path
           id="path3480"
           d="m 0,59.271 c 0,0 36.92,0 36.92,0 4.322,0 8.521,-0.905 11.855,-2.47 5.556,-2.551 8.273,-6.008 8.273,-10.537 0,0 0,-9.384 0,-9.384 0,-3.705 -3.087,-7.163 -9.138,-9.467 -3.211,-1.236 -7.162,-1.894 -10.99,-1.894 0,0 -15.559,0 -15.559,0 -5.185,0 -7.655,-1.564 -8.272,-5.021 -0.124,-0.412 -0.124,-0.742 -0.124,-1.153 0,0 0,-5.844 0,-5.844 0,-0.33 0,-0.66 0.124,-1.071 0.617,-2.634 1.976,-3.376 6.544,-3.787 0.371,0 0.864,-0.083 1.235,-0.083 0,0 36.674,0 36.674,0 0,0 0,-8.56 0,-8.56 0,0 -36.057,0 -36.057,0 C 16.299,0 13.582,0.329 11.113,1.069 3.457,3.457 0.123,7.244 0.123,13.83 c 0,0 0,7.491 0,7.491 0,5.763 6.545,10.702 17.534,11.854 1.236,0.082 2.47,0.164 3.704,0.164 0,0 13.336,0 13.336,0 0.495,0 0.989,0 1.359,0.083 4.075,0.33 5.803,1.07 7.039,2.552 0.74,0.74 0.987,1.482 0.987,2.305 0,0 0,7.491 0,7.491 0,0.906 -0.617,2.059 -1.851,3.046 -1.112,0.988 -2.964,1.647 -5.434,1.812 -0.494,0 -0.864,0.082 -1.358,0.082 0,0 -35.439,0 -35.439,0 0,0 0,8.561 0,8.561 z"
           inkscape:connector-curvature="0" />
      </g>
      <g
         id="g3482"
         style="fill:#e48e00;fill-rule:nonzero;stroke:none;stroke-width:0.87088001;stroke-linecap:butt;stroke-linejoin:miter;stroke-dasharray:none"
         transform="translate(308.656,124.557)">
        <path
           id="path3484"
           d="m 0,44.371 c 0,8.808 6.544,13.748 19.757,14.736 1.234,0.082 2.47,0.164 3.704,0.164 0,0 33.464,0 33.464,0 0,0 0,-8.561 0,-8.561 0,0 -33.711,0 -33.711,0 -7.532,0 -10.372,-1.894 -10.372,-6.421 0,0 0,-44.289 0,-44.289 C 12.842,0 0,0 0,0 0,0 0,44.371 0,44.371 Z"
           inkscape:connector-curvature="0" />
      </g>
      <g
         id="g3486"
         style="fill:#e48e00;fill-rule:nonzero;stroke:none;stroke-width:0.87088001;stroke-linecap:butt;stroke-linejoin:miter;stroke-dasharray:none"
         transform="translate(236.74,124.666)">
        <path
           id="path3488"
           d="m 0,44.711 c 0,0 0,-30.522 0,-30.522 C 0,6.435 5.445,1.732 16.209,0.247 17.323,0.083 18.561,0 19.674,0 c 0,0 24.376,0 24.376,0 1.237,0 2.352,0.083 3.589,0.247 10.765,1.485 16.209,6.188 16.209,13.942 0,0 0,30.522 0,30.522 0,6.291 -2.312,9.658 -7.641,11.852 0,0 12.65,11.418 12.65,11.418 0,0 -14.911,0 -14.911,0 0,0 -10.234,-9.238 -10.234,-9.238 0,0 -10.303,0.653 -10.303,0.653 0,0 -13.735,0 -13.735,0 -2.351,0 -4.825,-0.331 -7.548,-1.073 C 3.96,56.096 0,51.806 0,44.711 Z m 13.861,-0.742 c 0,0.413 0.123,0.825 0.247,1.32 0.742,3.547 4.083,5.527 9.156,5.527 0,0 11.667,0 11.667,0 0,0 -10.717,-9.675 -10.717,-9.675 0,0 14.911,0 14.911,0 0,0 9.347,8.438 9.347,8.438 1.722,-0.918 2.856,-2.322 3.252,-4.125 0.123,-0.412 0.123,-0.825 0.123,-1.237 0,0 0,-29.285 0,-29.285 0,-0.33 0,-0.743 -0.123,-1.156 C 50.981,10.477 47.64,8.58 42.691,8.58 c 0,0 -19.427,0 -19.427,0 -5.691,0 -9.403,2.475 -9.403,6.352 0,0 0,29.037 0,29.037 z"
           inkscape:connector-curvature="0" />
      </g>
      <g
         id="g3490"
         style="fill:#00618a;fill-rule:nonzero;stroke:none;stroke-width:0.87088001;stroke-linecap:butt;stroke-linejoin:miter;stroke-dasharray:none"
         transform="translate(241.59,-4.64258)">
        <path
           id="path3492"
           d="m 135.289,114.997 c -7.894,-0.214 -13.924,0.52 -19.079,2.694 -1.465,0.618 -3.801,0.634 -4.04,2.47 0.805,0.844 0.93,2.104 1.57,3.142 1.231,1.992 3.309,4.661 5.163,6.061 2.026,1.529 4.114,3.165 6.286,4.489 3.863,2.356 8.176,3.701 11.896,6.061 2.192,1.391 4.37,3.143 6.509,4.713 1.057,0.776 1.768,1.983 3.142,2.469 0,-0.074 0,-0.149 0,-0.224 -0.722,-0.919 -0.908,-2.183 -1.571,-3.143 -0.972,-0.972 -1.945,-1.945 -2.918,-2.918 -2.853,-3.787 -6.475,-7.113 -10.325,-9.876 -3.07,-2.204 -9.942,-5.181 -11.223,-8.754 -0.075,-0.075 -0.149,-0.15 -0.225,-0.225 2.177,-0.245 4.726,-1.033 6.735,-1.571 3.375,-0.905 6.391,-0.671 9.876,-1.571 1.571,-0.449 3.142,-0.899 4.714,-1.347 0,-0.3 0,-0.598 0,-0.898 -1.762,-1.808 -3.018,-4.2 -4.939,-5.836 -5.026,-4.28 -10.512,-8.556 -16.161,-12.1216 -3.133,-1.9776 -7.005,-3.2627 -10.325,-4.9385 -1.117,-0.5635 -3.079,-0.8565 -3.817,-1.7959 -1.744,-2.2237 -2.694,-5.042 -4.039,-7.6319 C 99.7,78.8194 96.933,72.8936 94.437,67.1856 92.734,63.293 91.622,59.4541 89.499,55.9619 79.307,39.2051 68.336,29.0908 51.341,19.1494 47.725,17.0352 43.371,16.2002 38.77,15.1094 36.302,14.96 33.832,14.8096 31.363,14.6602 29.856,14.0303 28.288,12.1865 26.874,11.293 21.244,7.73633 6.803,0 2.633,10.1709 0,16.5908 6.568,22.8555 8.917,26.1084 c 1.649,2.2822 3.76,4.8408 4.938,7.4072 0.775,1.6866 0.909,3.378 1.572,5.1631 1.632,4.3965 3.051,9.1797 5.162,13.2432 1.067,2.0557 2.243,4.2217 3.592,6.0605 0.827,1.128 2.244,1.625 2.468,3.3672 -1.386,1.9395 -1.465,4.9502 -2.244,7.4073 -3.508,11.0615 -2.185,24.8105 2.918,32.9971 1.566,2.513 5.254,7.903 10.325,5.836 4.436,-1.807 3.445,-7.406 4.714,-12.3458 0.287,-1.1202 0.111,-1.9434 0.673,-2.6934 0,0.0742 0,0.1494 0,0.2246 1.347,2.6934 2.694,5.3867 4.041,8.0796 2.99,4.816 8.297,9.849 12.794,13.245 2.332,1.761 4.168,4.806 7.183,5.836 0,-0.075 0,-0.149 0,-0.225 -0.076,0 -0.15,0 -0.225,0 -0.584,-0.911 -1.498,-1.288 -2.244,-2.02 -1.757,-1.722 -3.71,-3.863 -5.163,-5.836 -4.09,-5.553 -7.705,-11.631 -10.998,-17.9575 -1.573,-3.0205 -2.94,-6.3535 -4.266,-9.4278 -0.511,-1.1855 -0.505,-2.9775 -1.57,-3.5917 -1.452,2.2529 -3.591,4.0742 -4.714,6.7343 -1.796,4.252 -2.028,9.4375 -2.693,14.8147 -0.394,0.141 -0.219,0.044 -0.45,0.224 -3.126,-0.754 -4.225,-3.9723 -5.386,-6.733 -2.939,-6.9824 -3.485,-18.2256 -0.899,-26.2627 0.669,-2.0791 3.693,-8.6289 2.469,-10.5498 -0.584,-1.917 -2.512,-3.0254 -3.591,-4.4902 -1.335,-1.8106 -2.668,-4.1944 -3.592,-6.2852 -2.405,-5.4443 -3.528,-11.5557 -6.06,-17.0586 -1.21,-2.6309 -3.257,-5.293 -4.938,-7.6318 C 10.872,21.0489 8.788,19.1406 7.346,16.0069 6.833,14.8936 6.136,13.1113 6.897,11.9668 7.139,11.1943 7.48,10.8721 8.244,10.6201 c 1.302,-1.00389 4.928,0.334 6.284,0.8975 3.6,1.4951 6.604,2.9189 9.653,4.9385 1.464,0.9707 2.944,2.8476 4.713,3.3672 0.673,0 1.347,0 2.02,0 3.16,0.7265 6.7,0.2256 9.652,1.122 5.218,1.586 9.894,4.0528 14.141,6.7344 12.938,8.169 23.516,19.7979 30.752,33.6699 1.164,2.2334 1.668,4.3653 2.693,6.7344 2.069,4.7774 4.675,9.6934 6.733,14.3652 2.054,4.6612 4.056,9.3653 6.959,13.2442 1.527,2.039 7.422,3.1328 10.101,4.2646 1.878,0.794 4.955,1.621 6.734,2.693 3.398,2.05 6.69,4.49 9.877,6.735 1.593,1.122 6.489,3.583 6.733,5.611 z"
           inkscape:connector-curvature="0" />
      </g>
      <g
         id="g3494"
         style="fill:#00618a;fill-rule:evenodd;stroke:none;stroke-width:0.87088001;stroke-linecap:butt;stroke-linejoin:miter;stroke-dasharray:none"
         transform="translate(272.504,24.8027)">
        <path
           id="path3496"
           d="M 4.041,0.0303 C 2.395,0 1.231,0.21 0,0.4786 c 0,0.0751 0,0.1503 0,0.2246 0.075,0 0.15,0 0.225,0 C 1.01,2.3164 2.396,3.3545 3.367,4.7442 4.115,6.3155 4.863,7.8868 5.612,9.4571 5.686,9.3828 5.762,9.3077 5.836,9.2334 7.226,8.2539 7.863,6.6866 7.856,4.295 7.299,3.709 7.217,2.9737 6.734,2.2744 6.092,1.3428 4.85,0.8135 4.041,0.0303 Z"
           inkscape:connector-curvature="0" />
      </g>
      <g
         id="g3498"
         style="fill:#e48e00;fill-rule:evenodd;stroke:none;stroke-width:1;stroke-linecap:butt;stroke-linejoin:miter;stroke-dasharray:none"
         transform="translate(371.609,165.56)">
        <path
           id="path3500"
           d="m 0,9.463 c 0,5.654 4.467,9.464 9.464,9.464 4.997,0 9.464,-3.81 9.464,-9.464 C 18.928,3.81 14.461,0 9.464,0 4.467,0 0,3.81 0,9.463 Z m 16.808,0 c 0,4.29 -3.28,7.496 -7.344,7.496 -4.113,0 -7.344,-3.206 -7.344,-7.496 0,-4.29 3.231,-7.496 7.344,-7.496 4.064,0 7.344,3.206 7.344,7.496 z m -4.794,5.401 c 0,0 2.119,0 2.119,0 0,0 -3.103,-4.744 -3.103,-4.744 1.665,-0.177 2.926,-0.985 2.926,-2.953 0,-2.196 -1.387,-3.104 -4.062,-3.104 0,0 -4.215,0 -4.215,0 0,0 0,10.801 0,10.801 0,0 1.817,0 1.817,0 0,0 0,-4.669 0,-4.669 0,0 1.691,0 1.691,0 0,0 2.827,4.669 2.827,4.669 z M 7.496,8.681 c 0,0 0,-3.104 0,-3.104 0,0 2.094,0 2.094,0 1.086,0 2.398,0.202 2.398,1.464 0,1.513 -1.186,1.64 -2.549,1.64 0,0 -1.943,0 -1.943,0 z"
           inkscape:connector-curvature="0" />
      </g>
    </g>
    <text
       xml:space="preserve"
       style="font-style:normal;font-weight:normal;font-size:27.99991989px;line-height:125%;font-family:sans-serif;letter-spacing:0px;word-spacing:0px;fill:#e48e00;fill-opacity:1;stroke:none;stroke-width:1px;stroke-linecap:butt;stroke-linejoin:miter;stroke-opacity:1"
       x="100.22662"
       y="340.39832"
       id="text3526"
       sodipodi:linespacing="125%"
       transform="scale(0.95846318,1.0433369)"><tspan
         sodipodi:role="line"
         id="tspan3528"
         x="100.22662"
         y="340.39832">C<tspan
   style="fill:#483e37"
   id="tspan4392">reate</tspan></tspan></text>
    <text
       xml:space="preserve"
       style="font-style:normal;font-weight:normal;font-size:18.29044724px;line-height:125%;font-family:sans-serif;letter-spacing:0px;word-spacing:0px;fill:#006089;fill-opacity:1;stroke:none;stroke-width:1px;stroke-linecap:butt;stroke-linejoin:miter;stroke-opacity:1"
       x="282.15802"
       y="340.53583"
       id="text3542"
       sodipodi:linespacing="125%"
       transform="scale(0.95846318,1.0433369)"><tspan
         sodipodi:role="line"
         id="tspan3544"
         x="282.15802"
         y="340.53583">INSERT</tspan></text>
    <text
       sodipodi:linespacing="125%"
       id="text4400"
       y="373.77057"
       x="282.78976"
       style="font-style:normal;font-weight:normal;font-size:15px;line-height:125%;font-family:sans-serif;letter-spacing:0px;word-spacing:0px;fill:#006089;fill-opacity:0.35672518;stroke:none;stroke-width:1px;stroke-linecap:butt;stroke-linejoin:miter;stroke-opacity:1"
       xml:space="preserve"
       transform="scale(0.95846318,1.0433369)"><tspan
         y="373.77057"
         x="282.78976"
         id="tspan4402"
         sodipodi:role="line">INSERT INTO Comments ( email, firstName, comment) </tspan><tspan
         y="392.52057"
         x="282.78976"
         sodipodi:role="line"
         id="tspan4416">VALUES ( 'example@mail.com', 'Example', 'hello, this is a test' )</tspan></text>
    <text
       xml:space="preserve"
       style="font-style:normal;font-weight:normal;font-size:27.99991989px;line-height:125%;font-family:sans-serif;letter-spacing:0px;word-spacing:0px;fill:#e48e00;fill-opacity:1;stroke:none;stroke-width:1px;stroke-linecap:butt;stroke-linejoin:miter;stroke-opacity:1"
       x="99.050926"
       y="440.4361"
       id="text3530"
       sodipodi:linespacing="125%"
       transform="scale(0.95846318,1.0433369)"><tspan
         sodipodi:role="line"
         id="tspan3532"
         x="99.050926"
         y="440.4361">R<tspan
   style="fill:#483e37"
   id="tspan4394">ead</tspan></tspan></text>
    <text
       xml:space="preserve"
       style="font-style:normal;font-weight:normal;font-size:18.29044724px;line-height:125%;font-family:sans-serif;letter-spacing:0px;word-spacing:0px;fill:#006089;fill-opacity:1;stroke:none;stroke-width:1px;stroke-linecap:butt;stroke-linejoin:miter;stroke-opacity:1"
       x="279.71808"
       y="440.57355"
       id="text3546"
       sodipodi:linespacing="125%"
       transform="scale(0.95846318,1.0433369)"><tspan
         sodipodi:role="line"
         id="tspan3548"
         x="279.71808"
         y="440.57355">SELECT</tspan></text>
    <text
       sodipodi:linespacing="125%"
       id="text4404"
       y="473.80835"
       x="280.34982"
       style="font-style:normal;font-weight:normal;font-size:15px;line-height:125%;font-family:sans-serif;letter-spacing:0px;word-spacing:0px;fill:#006089;fill-opacity:0.35672518;stroke:none;stroke-width:1px;stroke-linecap:butt;stroke-linejoin:miter;stroke-opacity:1"
       xml:space="preserve"
       transform="scale(0.95846318,1.0433369)"><tspan
         y="473.80835"
         x="280.34982"
         id="tspan4406"
         sodipodi:role="line">SELECT email, name, comment FROM Comments</tspan></text>
    <text
       xml:space="preserve"
       style="font-style:normal;font-weight:normal;font-size:27.99991989px;line-height:125%;font-family:sans-serif;letter-spacing:0px;word-spacing:0px;fill:#e48e00;fill-opacity:1;stroke:none;stroke-width:1px;stroke-linecap:butt;stroke-linejoin:miter;stroke-opacity:1"
       x="99.365334"
       y="548.13312"
       id="text3534"
       sodipodi:linespacing="125%"
       transform="scale(0.95846318,1.0433369)"><tspan
         sodipodi:role="line"
         id="tspan3536"
         x="99.365334"
         y="548.13312">U<tspan
   style="fill:#483e37"
   id="tspan4396">pdate</tspan></tspan></text>
    <text
       xml:space="preserve"
       style="font-style:normal;font-weight:normal;font-size:18.29044724px;line-height:125%;font-family:sans-serif;letter-spacing:0px;word-spacing:0px;fill:#006089;fill-opacity:1;stroke:none;stroke-width:1px;stroke-linecap:butt;stroke-linejoin:miter;stroke-opacity:1"
       x="279.33405"
       y="547.89508"
       id="text3550"
       sodipodi:linespacing="125%"
       transform="scale(0.95846318,1.0433369)"><tspan
         sodipodi:role="line"
         id="tspan3552"
         x="279.33405"
         y="547.89508">UPDATE</tspan></text>
    <text
       sodipodi:linespacing="125%"
       id="text4408"
       y="580.80835"
       x="279.96579"
       style="font-style:normal;font-weight:normal;font-size:15px;line-height:125%;font-family:sans-serif;letter-spacing:0px;word-spacing:0px;fill:#006089;fill-opacity:0.35672518;stroke:none;stroke-width:1px;stroke-linecap:butt;stroke-linejoin:miter;stroke-opacity:1"
       xml:space="preserve"
       transform="scale(0.95846318,1.0433369)"><tspan
         y="580.80835"
         x="279.96579"
         id="tspan4410"
         sodipodi:role="line">UPDATE Comments</tspan><tspan
         y="599.55835"
         x="279.96579"
         sodipodi:role="line"
         id="tspan4418">SET name='robot', email='robot@mail.com'</tspan><tspan
         y="618.30835"
         x="279.96579"
         sodipodi:role="line"
         id="tspan4420">WHERE id='1'</tspan></text>
    <g
       id="g54"
       style="fill:#f4f6f8;stroke:#0f2d59;stroke-linecap:round;stroke-linejoin:round"
       transform="matrix(0.96225485,0,0,0.96225485,34.146883,44.234589)">
      <path
         id="path56"
         inkscape:connector-curvature="0"
         d="m 6.5,29.5 0,10 a 17.5,5 0 0 0 17.5,5 17.5,5 0 0 0 17.5,-5 l 0,-10" />
      <path
         id="path58"
         inkscape:connector-curvature="0"
         d="m 6.5,19.5 0,10 a 17.5,5 0 0 0 17.5,5 17.5,5 0 0 0 17.5,-5 l 0,-10" />
      <path
         id="path60"
         inkscape:connector-curvature="0"
         d="m 6.5,9.5 0,10 a 17.5,5 0 0 0 17.5,5 17.5,5 0 0 0 17.5,-5 l 0,-10" />
      <path
         id="path62"
         inkscape:connector-curvature="0"
         d="M 24,4.5 A 17.5,5 0 0 0 6.5,9.5 17.5,5 0 0 0 24,14.5 17.5,5 0 0 0 41.5,9.5 17.5,5 0 0 0 24,4.5 Z" />
    </g>
    <text
       xml:space="preserve"
       style="font-style:normal;font-weight:normal;font-size:40px;line-height:125%;font-family:sans-serif;letter-spacing:0px;word-spacing:0px;fill:#0f2d59;fill-opacity:1;stroke:none;stroke-width:1px;stroke-linecap:butt;stroke-linejoin:miter;stroke-opacity:1;"
       x="114.28571"
       y="82.362206"
       id="text4809"
       sodipodi:linespacing="125%"><tspan
         sodipodi:role="line"
         id="tspan4811"
         x="114.28571"
         y="82.362206">Database Actions</tspan></text>
    <text
       xml:space="preserve"
       style="font-style:normal;font-weight:normal;font-size:40px;line-height:125%;font-family:sans-serif;letter-spacing:0px;word-spacing:0px;fill:#e48e00;fill-opacity:1;stroke:none;stroke-width:1px;stroke-linecap:butt;stroke-linejoin:miter;stroke-opacity:1"
       x="94.285713"
       y="283.50504"
       id="text4813"
       sodipodi:linespacing="125%"><tspan
         sodipodi:role="line"
         id="tspan4815"
         x="94.285713"
         y="283.50504">CRUD</tspan></text>
    <path
       style="fill:#e6e6e6;fill-opacity:1"
       d="m 32.337508,575.23639 0,-2.60532 19.616509,0 19.616518,0 0,2.60532 0,2.60531 -19.616518,0 -19.616509,0 0,-2.60531 z m 11.340794,-4.34217 c 0,-0.6124 2.220199,-6.84538 2.438338,-6.84538 0.133153,0 1.097636,0.68389 2.143291,1.51976 l 1.901192,1.51976 -2.092006,1.33022 c -3.627506,2.30657 -4.390815,2.73694 -4.390815,2.47564 z m 4.813845,-6.11705 c -0.976841,-0.77697 -1.735447,-1.52515 -1.685794,-1.66262 0.143925,-0.39847 18.972867,-24.19936 19.144174,-24.19936 0.347611,0 3.791106,2.88054 3.712609,3.10566 -0.164687,0.47247 -18.975064,24.17352 -19.183561,24.17127 -0.116242,-0.002 -1.010587,-0.63798 -1.987428,-1.41495 z"
       id="path5367"
       inkscape:connector-curvature="0" />
    <path
       style="fill:#e6e6e6;fill-opacity:1"
       d="m 47.810639,366.22278 c -7.498356,-1.59131 -13.442486,-7.619 -15.013446,-15.2245 -0.612914,-2.96732 -0.612914,-4.85677 0,-7.82409 1.592559,-7.71007 7.557622,-13.68179 15.230693,-15.24771 2.984633,-0.60909 4.867566,-0.60909 7.852198,0 7.673077,1.56592 13.638144,7.53764 15.230693,15.24771 0.612141,2.96351 0.612847,4.84967 0.0031,7.83814 -2.173077,10.64764 -12.632805,17.47494 -23.303206,15.21045 z m 7.992023,-3.64671 c 3.055542,-0.78461 5.051561,-1.93829 7.37723,-4.26394 4.094147,-4.09416 5.647686,-9.58712 4.24742,-15.01803 -1.833936,-7.11301 -8.02334,-11.93368 -15.31987,-11.93201 -9.020545,0.002 -15.969767,7.01107 -15.894321,16.03106 0.03629,4.33813 1.555833,7.91618 4.68965,11.04264 3.893312,3.88417 9.658528,5.48617 14.899891,4.14028 z m -6.099382,-7.10084 c -0.112536,-0.11253 -0.204611,-1.48865 -0.204611,-3.05803 l 0,-2.85342 -2.992416,-0.0878 -2.992416,-0.0878 0,-2.30187 0,-2.30186 2.915687,0 2.915688,0 0.153457,-3.06914 0.153458,-3.06914 2.301858,0 2.301859,0 0.08771,2.98143 0.08771,2.98143 2.981434,0.0877 2.981436,0.0877 0.08964,2.37859 0.08964,2.37859 -3.082057,0 -3.082054,0 0,3.06915 0,3.06914 -2.250705,0 c -1.237891,0 -2.342783,-0.0921 -2.455316,-0.20461 z"
       id="path5365"
       inkscape:connector-curvature="0" />
    <path
       style="fill:#e6e6e6;fill-opacity:1"
       d="m 51.394577,755.05538 -17.822373,-0.0826 0,-13.10436 0,-13.10435 18.221978,0 18.221972,0 0,13.07283 c 0,10.18428 -0.0883,13.09805 -0.399605,13.18696 -0.219783,0.0627 -8.419673,0.0769 -18.221972,0.0315 z m -18.716555,-29.4413 c -0.293921,-0.18644 -0.387003,-0.95294 -0.319684,-2.63249 l 0.09497,-2.36946 5.185295,-0.0878 5.185297,-0.0878 -0.190078,-0.95039 c -0.378073,-1.89037 -0.277376,-1.91102 9.3202,-1.91102 7.551373,0 8.768921,0.0674 9.132274,0.50516 0.321505,0.38741 0.337778,0.72095 0.06976,1.43098 l -0.349447,0.92583 5.324079,0.0875 5.324046,0.0875 0.09498,2.36946 c 0.06733,1.67955 -0.0259,2.44605 -0.319684,2.63249 -0.541833,0.34371 -38.010177,0.34371 -38.552004,0 z"
       id="path5363"
       inkscape:connector-curvature="0" />
    <path
       style="fill:#e6e6e6;fill-opacity:1"
       d="m 32.337508,448.63242 0,-25.10914 19.616513,0 19.616513,0 0,25.10914 0,25.10913 -19.616513,0 -19.616513,0 0,-25.10913 z m 36.094384,0 0,-21.9705 -16.477871,0 -16.477871,0 0,21.9705 0,21.97049 16.477871,0 16.477871,0 0,-21.97049 z m -23.834063,17.39503 c -0.269727,-0.10884 -0.490413,-0.62118 -0.490413,-1.13855 0,-1.27898 0.699364,-1.39828 7.412154,-1.26439 4.763482,0.095 5.711065,0.21487 6.058372,0.76632 0.298477,0.47392 0.269876,0.82457 -0.104003,1.27507 -0.431187,0.51955 -1.488348,0.6163 -6.450698,0.59041 -3.26425,-0.017 -6.155685,-0.12003 -6.425412,-0.22886 z m -5.715993,-5.48886 c -0.50396,-0.50396 -0.266906,-2.01402 0.353541,-2.25211 0.341319,-0.13097 5.780582,-0.23814 12.087251,-0.23814 9.371738,0 11.605804,0.10332 12.228232,0.56552 0.609677,0.45273 0.674824,0.70703 0.326646,1.27507 -0.402174,0.65613 -1.349478,0.71736 -12.581772,0.81313 -6.680772,0.057 -12.267025,-0.0166 -12.413898,-0.16347 z m -0.123047,-6.99652 c -0.125369,-0.32671 -0.125369,-0.86133 0,-1.18804 0.198115,-0.51628 1.859446,-0.58046 12.694626,-0.49041 l 12.466679,0.10361 0,0.98082 0,0.98083 -12.466679,0.1036 c -10.83518,0.0901 -12.496511,0.0259 -12.694626,-0.49041 z m 0,-6.66961 c -0.125369,-0.32672 -0.125369,-0.86133 0,-1.18805 0.198115,-0.51628 1.859446,-0.58046 12.694626,-0.49041 l 12.466679,0.10361 0,0.98083 0,0.98082 -12.466679,0.10361 c -10.83518,0.09 -12.496511,0.0258 -12.694626,-0.49041 z m 0,-6.27729 c -0.125369,-0.32671 -0.125369,-0.86133 0,-1.18804 0.198115,-0.51628 1.859446,-0.58046 12.694626,-0.49041 l 12.466679,0.10361 0,0.98082 0,0.98083 -12.466679,0.10361 c -10.83518,0.09 -12.496511,0.0258 -12.694626,-0.49042 z m 12.19131,-6.65216 c -0.609422,-0.45254 -0.674769,-0.70727 -0.327113,-1.27507 0.381058,-0.62236 1.128349,-0.7234 6.081119,-0.82218 3.105666,-0.062 6.043902,-0.0144 6.529411,0.10555 1.09878,0.27158 1.174629,1.58874 0.123874,2.15108 -1.224353,0.65526 -11.487794,0.52341 -12.407291,-0.15938 z"
       id="path5361"
       inkscape:connector-curvature="0" />
  </g>
</svg>
